  0
SECTION
  2
HEADER
  9
$ACADVER
  1
AC1009
  9
$EXTMIN
 10
0.0
 20
0.0
 30
0.0
  9
$EXTMAX
 10
1000.0
 20
1000.0
 30
0.0
  9
$FILLMODE
 70
 0
  9
$SPLFRAME
 70
 1
  0
ENDSEC
  0
SECTION
  2
TABLES
  0
TABLE
  2
LAYER
 70
1
  0
LAYER
  2
0
 70
     0
 62
     7
  6
CONTINUOUS
  0
ENDTAB
  0
ENDSEC
  0
SECTION
  2
ENTITIES
  0
POLYLINE
  8
0
 62
     7
 66
     1
 10
0
 20
0
 30
0.0
 70
     1
 40
0
 41
0
  0
VERTEX
  8
0
 10
0
 20
0
 30
0.0
 40
0
 41
0
  0
VERTEX
  8
0
 10
6.63542
 20
0
 30
0.0
 40
0
 41
0
  0
VERTEX
  8
0
 10
6.63542
 20
6.63542
 30
0.0
 40
0
 41
0
  0
VERTEX
  8
0
 10
0
 20
6.63542
 30
0.0
 40
0
 41
0
  0
VERTEX
  8
0
 10
0
 20
0
 30
0.0
 40
0
 41
0
  0
SEQEND
 8
0
  0
POLYLINE
  8
0
 62
     93
 66
     1
 10
0
 20
0
 30
0.0
 70
     1
 40
0
 41
0
  0
VERTEX
  8
0
 10
4.78087
 20
4.58171
 30
0.0
 40
0
 41
0
  0
VERTEX
  8
0
 10
4.73426
 20
4.58171
 30
0.0
 40
0
 41
0
  0
VERTEX
  8
0
 10
4.59446
 20
4.56787
 30
0.0
 40
0
 41
0
  0
VERTEX
  8
0
 10
4.41504
 20
4.52756
 30
0.0
 40
0
 41
0
  0
VERTEX
  8
0
 10
4.24501
 20
4.46229
 30
0.0
 40
0
 41
0
  0
VERTEX
  8
0
 10
4.08681
 20
4.37381
 30
0.0
 40
0
 41
0
  0
VERTEX
  8
0
 10
3.94287
 20
4.26361
 30
0.0
 40
0
 41
0
  0
VERTEX
  8
0
 10
3.81565
 20
4.13336
 30
0.0
 40
0
 41
0
  0
VERTEX
  8
0
 10
3.70751
 20
3.9846
 30
0.0
 40
0
 41
0
  0
VERTEX
  8
0
 10
3.63943
 20
3.86171
 30
0.0
 40
0
 41
0
  0
VERTEX
  8
0
 10
3.62099
 20
3.8189
 30
0.0
 40
0
 41
0
  0
VERTEX
  8
0
 10
3.91054
 20
3.8189
 30
0.0
 40
0
 41
0
  0
VERTEX
  8
0
 10
3.91054
 20
3.60906
 30
0.0
 40
0
 41
0
  0
VERTEX
  8
0
 10
3.55236
 20
3.60906
 30
0.0
 40
0
 41
0
  0
VERTEX
  8
0
 10
3.54656
 20
3.58524
 30
0.0
 40
0
 41
0
  0
VERTEX
  8
0
 10
3.51704
 20
3.34229
 30
0.0
 40
0
 41
0
  0
VERTEX
  8
0
 10
3.51693
 20
3.31771
 30
0.0
 40
0
 41
0
  0
VERTEX
  8
0
 10
3.51693
 20
3.25581
 30
0.0
 40
0
 41
0
  0
VERTEX
  8
0
 10
3.54139
 20
3.06999
 30
0.0
 40
0
 41
0
  0
VERTEX
  8
0
 10
3.61312
 20
2.83404
 30
0.0
 40
0
 41
0
  0
VERTEX
  8
0
 10
3.72922
 20
2.61649
 30
0.0
 40
0
 41
0
  0
VERTEX
  8
0
 10
3.84326
 20
2.46778
 30
0.0
 40
0
 41
0
  0
VERTEX
  8
0
 10
3.8871
 20
2.42393
 30
0.0
 40
0
 41
0
  0
VERTEX
  8
0
 10
3.93088
 20
2.38015
 30
0.0
 40
0
 41
0
  0
VERTEX
  8
0
 10
4.07958
 20
2.26611
 30
0.0
 40
0
 41
0
  0
VERTEX
  8
0
 10
4.29715
 20
2.14996
 30
0.0
 40
0
 41
0
  0
VERTEX
  8
0
 10
4.5331
 20
2.07824
 30
0.0
 40
0
 41
0
  0
VERTEX
  8
0
 10
4.71892
 20
2.05371
 30
0.0
 40
0
 41
0
  0
VERTEX
  8
0
 10
4.78087
 20
2.05371
 30
0.0
 40
0
 41
0
  0
VERTEX
  8
0
 10
4.82801
 20
2.05376
 30
0.0
 40
0
 41
0
  0
VERTEX
  8
0
 10
4.96946
 20
2.06793
 30
0.0
 40
0
 41
0
  0
VERTEX
  8
0
 10
5.15093
 20
2.10915
 30
0.0
 40
0
 41
0
  0
VERTEX
  8
0
 10
5.32264
 20
2.17589
 30
0.0
 40
0
 41
0
  0
VERTEX
  8
0
 10
5.4821
 20
2.26633
 30
0.0
 40
0
 41
0
  0
VERTEX
  8
0
 10
5.62685
 20
2.3789
 30
0.0
 40
0
 41
0
  0
VERTEX
  8
0
 10
5.75435
 20
2.51187
 30
0.0
 40
0
 41
0
  0
VERTEX
  8
0
 10
5.86208
 20
2.66357
 30
0.0
 40
0
 41
0
  0
VERTEX
  8
0
 10
5.92947
 20
2.78879
 30
0.0
 40
0
 41
0
  0
VERTEX
  8
0
 10
5.9476
 20
2.83231
 30
0.0
 40
0
 41
0
  0
VERTEX
  8
0
 10
5.94754
 20
2.83231
 30
0.0
 40
0
 41
0
  0
VERTEX
  8
0
 10
5.94726
 20
2.83225
 30
0.0
 40
0
 41
0
  0
VERTEX
  8
0
 10
5.94726
 20
2.83219
 30
0.0
 40
0
 41
0
  0
VERTEX
  8
0
 10
5.94526
 20
2.83137
 30
0.0
 40
0
 41
0
  0
VERTEX
  8
0
 10
5.92535
 20
2.82346
 30
0.0
 40
0
 41
0
  0
VERTEX
  8
0
 10
5.92333
 20
2.82269
 30
0.0
 40
0
 41
0
  0
VERTEX
  8
0
 10
5.92324
 20
2.82269
 30
0.0
 40
0
 41
0
  0
VERTEX
  8
0
 10
5.92215
 20
2.82226
 30
0.0
 40
0
 41
0
  0
VERTEX
  8
0
 10
5.92204
 20
2.82221
 30
0.0
 40
0
 41
0
  0
VERTEX
  8
0
 10
5.92003
 20
2.8215
 30
0.0
 40
0
 41
0
  0
VERTEX
  8
0
 10
5.90039
 20
2.81483
 30
0.0
 40
0
 41
0
  0
VERTEX
  8
0
 10
5.89844
 20
2.81418
 30
0.0
 40
0
 41
0
  0
VERTEX
  8
0
 10
5.89822
 20
2.81413
 30
0.0
 40
0
 41
0
  0
VERTEX
  8
0
 10
5.8966
 20
2.81364
 30
0.0
 40
0
 41
0
  0
VERTEX
  8
0
 10
5.89643
 20
2.81358
 30
0.0
 40
0
 41
0
  0
VERTEX
  8
0
 10
5.89447
 20
2.81299
 30
0.0
 40
0
 41
0
  0
VERTEX
  8
0
 10
5.87532
 20
2.80757
 30
0.0
 40
0
 41
0
  0
VERTEX
  8
0
 10
5.87343
 20
2.80701
 30
0.0
 40
0
 41
0
  0
VERTEX
  8
0
 10
5.8731
 20
2.80697
 30
0.0
 40
0
 41
0
  0
VERTEX
  8
0
 10
5.8699
 20
2.80615
 30
0.0
 40
0
 41
0
  0
VERTEX
  8
0
 10
5.86957
 20
2.80604
 30
0.0
 40
0
 41
0
  0
VERTEX
  8
0
 10
5.86778
 20
2.80561
 30
0.0
 40
0
 41
0
  0
VERTEX
  8
0
 10
5.8501
 20
2.80149
 30
0.0
 40
0
 41
0
  0
VERTEX
  8
0
 10
5.84831
 20
2.80111
 30
0.0
 40
0
 41
0
  0
VERTEX
  8
0
 10
5.84776
 20
2.801
 30
0.0
 40
0
 41
0
  0
VERTEX
  8
0
 10
5.84224
 20
2.79992
 30
0.0
 40
0
 41
0
  0
VERTEX
  8
0
 10
5.84169
 20
2.79981
 30
0.0
 40
0
 41
0
  0
VERTEX
  8
0
 10
5.84006
 20
2.79953
 30
0.0
 40
0
 41
0
  0
VERTEX
  8
0
 10
5.82379
 20
2.7966
 30
0.0
 40
0
 41
0
  0
VERTEX
  8
0
 10
5.82215
 20
2.79633
 30
0.0
 40
0
 41
0
  0
VERTEX
  8
0
 10
5.82146
 20
2.79622
 30
0.0
 40
0
 41
0
  0
VERTEX
  8
0
 10
5.8144
 20
2.79531
 30
0.0
 40
0
 41
0
  0
VERTEX
  8
0
 10
5.81375
 20
2.79519
 30
0.0
 40
0
 41
0
  0
VERTEX
  8
0
 10
5.81228
 20
2.79503
 30
0.0
 40
0
 41
0
  0
VERTEX
  8
0
 10
5.79753
 20
2.79312
 30
0.0
 40
0
 41
0
  0
VERTEX
  8
0
 10
5.79606
 20
2.79297
 30
0.0
 40
0
 41
0
  0
VERTEX
  8
0
 10
5.79492
 20
2.79286
 30
0.0
 40
0
 41
0
  0
VERTEX
  8
0
 10
5.78358
 20
2.79199
 30
0.0
 40
0
 41
0
  0
VERTEX
  8
0
 10
5.7825
 20
2.79189
 30
0.0
 40
0
 41
0
  0
VERTEX
  8
0
 10
5.78136
 20
2.79183
 30
0.0
 40
0
 41
0
  0
VERTEX
  8
0
 10
5.77013
 20
2.79096
 30
0.0
 40
0
 41
0
  0
VERTEX
  8
0
 10
5.76904
 20
2.79085
 30
0.0
 40
0
 41
0
  0
VERTEX
  8
0
 10
5.76676
 20
2.79075
 30
0.0
 40
0
 41
0
  0
VERTEX
  8
0
 10
5.74799
 20
2.79015
 30
0.0
 40
0
 41
0
  0
VERTEX
  8
0
 10
5.74175
 20
2.79015
 30
0.0
 40
0
 41
0
  0
VERTEX
  8
0
 10
5.73671
 20
2.79015
 30
0.0
 40
0
 41
0
  0
VERTEX
  8
0
 10
5.72336
 20
2.79047
 30
0.0
 40
0
 41
0
  0
VERTEX
  8
0
 10
5.72174
 20
2.79053
 30
0.0
 40
0
 41
0
  0
VERTEX
  8
0
 10
5.71674
 20
2.79075
 30
0.0
 40
0
 41
0
  0
VERTEX
  8
0
 10
5.66781
 20
2.79508
 30
0.0
 40
0
 41
0
  0
VERTEX
  8
0
 10
5.66303
 20
2.79579
 30
0.0
 40
0
 41
0
  0
VERTEX
  8
0
 10
5.6614
 20
2.79606
 30
0.0
 40
0
 41
0
  0
VERTEX
  8
0
 10
5.64546
 20
2.79872
 30
0.0
 40
0
 41
0
  0
VERTEX
  8
0
 10
5.64388
 20
2.79899
 30
0.0
 40
0
 41
0
  0
VERTEX
  8
0
 10
5.64068
 20
2.79958
 30
0.0
 40
0
 41
0
  0
VERTEX
  8
0
 10
5.60926
 20
2.80669
 30
0.0
 40
0
 41
0
  0
VERTEX
  8
0
 10
5.60618
 20
2.80751
 30
0.0
 40
0
 41
0
  0
VERTEX
  8
0
 10
5.60151
 20
2.80875
 30
0.0
 40
0
 41
0
  0
VERTEX
  8
0
 10
5.55572
 20
2.82383
 30
0.0
 40
0
 41
0
  0
VERTEX
  8
0
 10
5.55126
 20
2.82557
 30
0.0
 40
0
 41
0
  0
VERTEX
  8
0
 10
5.54975
 20
2.82617
 30
0.0
 40
0
 41
0
  0
VERTEX
  8
0
 10
5.53483
 20
2.83236
 30
0.0
 40
0
 41
0
  0
VERTEX
  8
0
 10
5.53336
 20
2.83301
 30
0.0
 40
0
 41
0
  0
VERTEX
  8
0
 10
5.53185
 20
2.83365
 30
0.0
 40
0
 41
0
  0
VERTEX
  8
0
 10
5.51714
 20
2.84044
 30
0.0
 40
0
 41
0
  0
VERTEX
  8
0
 10
5.51568
 20
2.84115
 30
0.0
 40
0
 41
0
  0
VERTEX
  8
0
 10
5.51421
 20
2.84185
 30
0.0
 40
0
 41
0
  0
VERTEX
  8
0
 10
5.49962
 20
2.84924
 30
0.0
 40
0
 41
0
  0
VERTEX
  8
0
 10
5.49821
 20
2.84999
 30
0.0
 40
0
 41
0
  0
VERTEX
  8
0
 10
5.49387
 20
2.85232
 30
0.0
 40
0
 41
0
  0
VERTEX
  8
0
 10
5.45128
 20
2.87799
 30
0.0
 40
0
 41
0
  0
VERTEX
  8
0
 10
5.4471
 20
2.88081
 30
0.0
 40
0
 41
0
  0
VERTEX
  8
0
 10
5.43989
 20
2.88574
 30
0.0
 40
0
 41
0
  0
VERTEX
  8
0
 10
5.37429
 20
2.93983
 30
0.0
 40
0
 41
0
  0
VERTEX
  8
0
 10
5.36838
 20
2.94575
 30
0.0
 40
0
 41
0
  0
VERTEX
  8
0
 10
5.36719
 20
2.94694
 30
0.0
 40
0
 41
0
  0
VERTEX
  8
0
 10
5.35558
 20
2.95899
 30
0.0
 40
0
 41
0
  0
VERTEX
  8
0
 10
5.35449
 20
2.96018
 30
0.0
 40
0
 41
0
  0
VERTEX
  8
0
 10
5.34879
 20
2.96631
 30
0.0
 40
0
 41
0
  0
VERTEX
  8
0
 10
5.29844
 20
3.03244
 30
0.0
 40
0
 41
0
  0
VERTEX
  8
0
 10
5.29406
 20
3.03956
 30
0.0
 40
0
 41
0
  0
VERTEX
  8
0
 10
5.29313
 20
3.04101
 30
0.0
 40
0
 41
0
  0
VERTEX
  8
0
 10
5.28467
 20
3.05539
 30
0.0
 40
0
 41
0
  0
VERTEX
  8
0
 10
5.28386
 20
3.05686
 30
0.0
 40
0
 41
0
  0
VERTEX
  8
0
 10
5.28299
 20
3.05832
 30
0.0
 40
0
 41
0
  0
VERTEX
  8
0
 10
5.27496
 20
3.07319
 30
0.0
 40
0
 41
0
  0
VERTEX
  8
0
 10
5.27419
 20
3.07465
 30
0.0
 40
0
 41
0
  0
VERTEX
  8
0
 10
5.27339
 20
3.07617
 30
0.0
 40
0
 41
0
  0
VERTEX
  8
0
 10
5.2659
 20
3.09136
 30
0.0
 40
0
 41
0
  0
VERTEX
  8
0
 10
5.26519
 20
3.09289
 30
0.0
 40
0
 41
0
  0
VERTEX
  8
0
 10
5.26372
 20
3.09597
 30
0.0
 40
0
 41
0
  0
VERTEX
  8
0
 10
5.25022
 20
3.12765
 30
0.0
 40
0
 41
0
  0
VERTEX
  8
0
 10
5.24897
 20
3.13086
 30
0.0
 40
0
 41
0
  0
VERTEX
  8
0
 10
5.24658
 20
3.13678
 30
0.0
 40
0
 41
0
  0
VERTEX
  8
0
 10
5.22775
 20
3.19965
 30
0.0
 40
0
 41
0
  0
VERTEX
  8
0
 10
5.22635
 20
3.20637
 30
0.0
 40
0
 41
0
  0
VERTEX
  8
0
 10
5.22547
 20
3.21044
 30
0.0
 40
0
 41
0
  0
VERTEX
  8
0
 10
5.21875
 20
3.25228
 30
0.0
 40
0
 41
0
  0
VERTEX
  8
0
 10
5.21826
 20
3.25663
 30
0.0
 40
0
 41
0
  0
VERTEX
  8
0
 10
5.43614
 20
3.25663
 30
0.0
 40
0
 41
0
  0
VERTEX
  8
0
 10
5.43744
 20
3.25049
 30
0.0
 40
0
 41
0
  0
VERTEX
  8
0
 10
5.45606
 20
3.19319
 30
0.0
 40
0
 41
0
  0
VERTEX
  8
0
 10
5.45844
 20
3.18787
 30
0.0
 40
0
 41
0
  0
VERTEX
  8
0
 10
5.45942
 20
3.18571
 30
0.0
 40
0
 41
0
  0
VERTEX
  8
0
 10
5.47011
 20
3.16476
 30
0.0
 40
0
 41
0
  0
VERTEX
  8
0
 10
5.47131
 20
3.16271
 30
0.0
 40
0
 41
0
  0
VERTEX
  8
0
 10
5.47151
 20
3.16228
 30
0.0
 40
0
 41
0
  0
VERTEX
  8
0
 10
5.47396
 20
3.15782
 30
0.0
 40
0
 41
0
  0
VERTEX
  8
0
 10
5.47424
 20
3.15739
 30
0.0
 40
0
 41
0
  0
VERTEX
  8
0
 10
5.47493
 20
3.15619
 30
0.0
 40
0
 41
0
  0
VERTEX
  8
0
 10
5.48247
 20
3.14426
 30
0.0
 40
0
 41
0
  0
VERTEX
  8
0
 10
5.48329
 20
3.14307
 30
0.0
 40
0
 41
0
  0
VERTEX
  8
0
 10
5.48406
 20
3.14193
 30
0.0
 40
0
 41
0
  0
VERTEX
  8
0
 10
5.49229
 20
3.13053
 30
0.0
 40
0
 41
0
  0
VERTEX
  8
0
 10
5.49317
 20
3.12939
 30
0.0
 40
0
 41
0
  0
VERTEX
  8
0
 10
5.49408
 20
3.12819
 30
0.0
 40
0
 41
0
  0
VERTEX
  8
0
 10
5.50364
 20
3.11621
 30
0.0
 40
0
 41
0
  0
VERTEX
  8
0
 10
5.50461
 20
3.11501
 30
0.0
 40
0
 41
0
  0
VERTEX
  8
0
 10
5.50558
 20
3.11388
 30
0.0
 40
0
 41
0
  0
VERTEX
  8
0
 10
5.51568
 20
3.1026
 30
0.0
 40
0
 41
0
  0
VERTEX
  8
0
 10
5.51671
 20
3.10151
 30
0.0
 40
0
 41
0
  0
VERTEX
  8
0
 10
5.51774
 20
3.10042
 30
0.0
 40
0
 41
0
  0
VERTEX
  8
0
 10
5.52832
 20
3.08985
 30
0.0
 40
0
 41
0
  0
VERTEX
  8
0
 10
5.5294
 20
3.08882
 30
0.0
 40
0
 41
0
  0
VERTEX
  8
0
 10
5.53157
 20
3.08681
 30
0.0
 40
0
 41
0
  0
VERTEX
  8
0
 10
5.55425
 20
3.06776
 30
0.0
 40
0
 41
0
  0
VERTEX
  8
0
 10
5.55664
 20
3.06597
 30
0.0
 40
0
 41
0
  0
VERTEX
  8
0
 10
5.55897
 20
3.06424
 30
0.0
 40
0
 41
0
  0
VERTEX
  8
0
 10
5.58371
 20
3.04801
 30
0.0
 40
0
 41
0
  0
VERTEX
  8
0
 10
5.58632
 20
3.0465
 30
0.0
 40
0
 41
0
  0
VERTEX
  8
0
 10
5.58757
 20
3.04579
 30
0.0
 40
0
 41
0
  0
VERTEX
  8
0
 10
5.60075
 20
3.03874
 30
0.0
 40
0
 41
0
  0
VERTEX
  8
0
 10
5.60211
 20
3.03803
 30
0.0
 40
0
 41
0
  0
VERTEX
  8
0
 10
5.60894
 20
3.03461
 30
0.0
 40
0
 41
0
  0
VERTEX
  8
0
 10
5.67964
 20
3.01107
 30
0.0
 40
0
 41
0
  0
VERTEX
  8
0
 10
5.6869
 20
3.00976
 30
0.0
 40
0
 41
0
  0
VERTEX
  8
0
 10
5.69125
 20
3.009
 30
0.0
 40
0
 41
0
  0
VERTEX
  8
0
 10
5.72803
 20
3.0051
 30
0.0
 40
0
 41
0
  0
VERTEX
  8
0
 10
5.74029
 20
3.0051
 30
0.0
 40
0
 41
0
  0
VERTEX
  8
0
 10
5.74685
 20
3.0051
 30
0.0
 40
0
 41
0
  0
VERTEX
  8
0
 10
5.76443
 20
3.00597
 30
0.0
 40
0
 41
0
  0
VERTEX
  8
0
 10
5.7666
 20
3.00612
 30
0.0
 40
0
 41
0
  0
VERTEX
  8
0
 10
5.76878
 20
3.00629
 30
0.0
 40
0
 41
0
  0
VERTEX
  8
0
 10
5.79015
 20
3.00885
 30
0.0
 40
0
 41
0
  0
VERTEX
  8
0
 10
5.79226
 20
3.00917
 30
0.0
 40
0
 41
0
  0
VERTEX
  8
0
 10
5.79432
 20
3.00956
 30
0.0
 40
0
 41
0
  0
VERTEX
  8
0
 10
5.81511
 20
3.01378
 30
0.0
 40
0
 41
0
  0
VERTEX
  8
0
 10
5.81717
 20
3.01426
 30
0.0
 40
0
 41
0
  0
VERTEX
  8
0
 10
5.81917
 20
3.01481
 30
0.0
 40
0
 41
0
  0
VERTEX
  8
0
 10
5.83936
 20
3.02072
 30
0.0
 40
0
 41
0
  0
VERTEX
  8
0
 10
5.84136
 20
3.02138
 30
0.0
 40
0
 41
0
  0
VERTEX
  8
0
 10
5.84928
 20
3.02408
 30
0.0
 40
0
 41
0
  0
VERTEX
  8
0
 10
5.9241
 20
3.06478
 30
0.0
 40
0
 41
0
  0
VERTEX
  8
0
 10
5.93115
 20
3.07021
 30
0.0
 40
0
 41
0
  0
VERTEX
  8
0
 10
5.93261
 20
3.0714
 30
0.0
 40
0
 41
0
  0
VERTEX
  8
0
 10
5.947
 20
3.08356
 30
0.0
 40
0
 41
0
  0
VERTEX
  8
0
 10
5.9484
 20
3.08479
 30
0.0
 40
0
 41
0
  0
VERTEX
  8
0
 10
5.94851
 20
3.08496
 30
0.0
 40
0
 41
0
  0
VERTEX
  8
0
 10
5.95008
 20
3.08626
 30
0.0
 40
0
 41
0
  0
VERTEX
  8
0
 10
5.95025
 20
3.08637
 30
0.0
 40
0
 41
0
  0
VERTEX
  8
0
 10
5.95156
 20
3.08763
 30
0.0
 40
0
 41
0
  0
VERTEX
  8
0
 10
5.96436
 20
3.10026
 30
0.0
 40
0
 41
0
  0
VERTEX
  8
0
 10
5.9656
 20
3.10157
 30
0.0
 40
0
 41
0
  0
VERTEX
  8
0
 10
5.96576
 20
3.10178
 30
0.0
 40
0
 41
0
  0
VERTEX
  8
0
 10
5.96756
 20
3.10374
 30
0.0
 40
0
 41
0
  0
VERTEX
  8
0
 10
5.96778
 20
3.10389
 30
0.0
 40
0
 41
0
  0
VERTEX
  8
0
 10
5.96897
 20
3.10525
 30
0.0
 40
0
 41
0
  0
VERTEX
  8
0
 10
5.98063
 20
3.11882
 30
0.0
 40
0
 41
0
  0
VERTEX
  8
0
 10
5.98178
 20
3.12022
 30
0.0
 40
0
 41
0
  0
VERTEX
  8
0
 10
5.98188
 20
3.12044
 30
0.0
 40
0
 41
0
  0
VERTEX
  8
0
 10
5.98335
 20
3.12229
 30
0.0
 40
0
 41
0
  0
VERTEX
  8
0
 10
5.98351
 20
3.12244
 30
0.0
 40
0
 41
0
  0
VERTEX
  8
0
 10
5.98465
 20
3.12392
 30
0.0
 40
0
 41
0
  0
VERTEX
  8
0
 10
5.99567
 20
3.139
 30
0.0
 40
0
 41
0
  0
VERTEX
  8
0
 10
5.99675
 20
3.14051
 30
0.0
 40
0
 41
0
  0
VERTEX
  8
0
 10
5.99681
 20
3.14063
 30
0.0
 40
0
 41
0
  0
VERTEX
  8
0
 10
5.99735
 20
3.14154
 30
0.0
 40
0
 41
0
  0
VERTEX
  8
0
 10
5.9974
 20
3.1416
 30
0.0
 40
0
 41
0
  0
VERTEX
  8
0
 10
5.99962
 20
3.14497
 30
0.0
 40
0
 41
0
  0
VERTEX
  8
0
 10
6.01975
 20
3.18061
 30
0.0
 40
0
 41
0
  0
VERTEX
  8
0
 10
6.02154
 20
3.18435
 30
0.0
 40
0
 41
0
  0
VERTEX
  8
0
 10
6.0224
 20
3.18625
 30
0.0
 40
0
 41
0
  0
VERTEX
  8
0
 10
6.03082
 20
3.20578
 30
0.0
 40
0
 41
0
  0
VERTEX
  8
0
 10
6.03163
 20
3.20774
 30
0.0
 40
0
 41
0
  0
VERTEX
  8
0
 10
6.03163
 20
3.20779
 30
0.0
 40
0
 41
0
  0
VERTEX
  8
0
 10
6.03174
 20
3.20806
 30
0.0
 40
0
 41
0
  0
VERTEX
  8
0
 10
6.03179
 20
3.20806
 30
0.0
 40
0
 41
0
  0
VERTEX
  8
0
 10
6.03179
 20
3.20811
 30
0.0
 40
0
 41
0
  0
VERTEX
  8
0
 10
6.03185
 20
3.20839
 30
0.0
 40
0
 41
0
  0
VERTEX
  8
0
 10
6.0319
 20
3.20839
 30
0.0
 40
0
 41
0
  0
VERTEX
  8
0
 10
6.03267
 20
3.21039
 30
0.0
 40
0
 41
0
  0
VERTEX
  8
0
 10
6.03988
 20
3.23096
 30
0.0
 40
0
 41
0
  0
VERTEX
  8
0
 10
6.04058
 20
3.23307
 30
0.0
 40
0
 41
0
  0
VERTEX
  8
0
 10
6.04058
 20
3.23307
 30
0.0
 40
0
 41
0
  0
VERTEX
  8
0
 10
6.04064
 20
3.23318
 30
0.0
 40
0
 41
0
  0
VERTEX
  8
0
 10
6.04064
 20
3.23318
 30
0.0
 40
0
 41
0
  0
VERTEX
  8
0
 10
6.04064
 20
3.23318
 30
0.0
 40
0
 41
0
  0
VERTEX
  8
0
 10
6.04064
 20
3.23324
 30
0.0
 40
0
 41
0
  0
VERTEX
  8
0
 10
6.04064
 20
3.23324
 30
0.0
 40
0
 41
0
  0
VERTEX
  8
0
 10
6.04118
 20
3.24029
 30
0.0
 40
0
 41
0
  0
VERTEX
  8
0
 10
6.04471
 20
3.31065
 30
0.0
 40
0
 41
0
  0
VERTEX
  8
0
 10
6.04486
 20
3.31771
 30
0.0
 40
0
 41
0
  0
VERTEX
  8
0
 10
6.04482
 20
3.32428
 30
0.0
 40
0
 41
0
  0
VERTEX
  8
0
 10
6.04254
 20
3.38981
 30
0.0
 40
0
 41
0
  0
VERTEX
  8
0
 10
6.0421
 20
3.39632
 30
0.0
 40
0
 41
0
  0
VERTEX
  8
0
 10
6.04167
 20
3.39779
 30
0.0
 40
0
 41
0
  0
VERTEX
  8
0
 10
6.03706
 20
3.41183
 30
0.0
 40
0
 41
0
  0
VERTEX
  8
0
 10
6.03662
 20
3.41319
 30
0.0
 40
0
 41
0
  0
VERTEX
  8
0
 10
6.03646
 20
3.41363
 30
0.0
 40
0
 41
0
  0
VERTEX
  8
0
 10
6.03494
 20
3.41775
 30
0.0
 40
0
 41
0
  0
VERTEX
  8
0
 10
6.03483
 20
3.41812
 30
0.0
 40
0
 41
0
  0
VERTEX
  8
0
 10
6.03444
 20
3.41911
 30
0.0
 40
0
 41
0
  0
VERTEX
  8
0
 10
6.03097
 20
3.42839
 30
0.0
 40
0
 41
0
  0
VERTEX
  8
0
 10
6.03065
 20
3.42925
 30
0.0
 40
0
 41
0
  0
VERTEX
  8
0
 10
6.03043
 20
3.42979
 30
0.0
 40
0
 41
0
  0
VERTEX
  8
0
 10
6.02832
 20
3.43494
 30
0.0
 40
0
 41
0
  0
VERTEX
  8
0
 10
6.0281
 20
3.43544
 30
0.0
 40
0
 41
0
  0
VERTEX
  8
0
 10
6.02772
 20
3.43625
 30
0.0
 40
0
 41
0
  0
VERTEX
  8
0
 10
6.02436
 20
3.44422
 30
0.0
 40
0
 41
0
  0
VERTEX
  8
0
 10
6.02403
 20
3.44499
 30
0.0
 40
0
 41
0
  0
VERTEX
  8
0
 10
6.02376
 20
3.44553
 30
0.0
 40
0
 41
0
  0
VERTEX
  8
0
 10
6.02143
 20
3.45057
 30
0.0
 40
0
 41
0
  0
VERTEX
  8
0
 10
6.02121
 20
3.45107
 30
0.0
 40
0
 41
0
  0
VERTEX
  8
0
 10
6.02083
 20
3.45182
 30
0.0
 40
0
 41
0
  0
VERTEX
  8
0
 10
6.01725
 20
3.45915
 30
0.0
 40
0
 41
0
  0
VERTEX
  8
0
 10
6.01693
 20
3.45985
 30
0.0
 40
0
 41
0
  0
VERTEX
  8
0
 10
6.01665
 20
3.46039
 30
0.0
 40
0
 41
0
  0
VERTEX
  8
0
 10
6.01406
 20
3.46533
 30
0.0
 40
0
 41
0
  0
VERTEX
  8
0
 10
6.01383
 20
3.46582
 30
0.0
 40
0
 41
0
  0
VERTEX
  8
0
 10
6.01346
 20
3.46658
 30
0.0
 40
0
 41
0
  0
VERTEX
  8
0
 10
6.0095
 20
3.47368
 30
0.0
 40
0
 41
0
  0
VERTEX
  8
0
 10
6.00911
 20
3.47433
 30
0.0
 40
0
 41
0
  0
VERTEX
  8
0
 10
6.00885
 20
3.47478
 30
0.0
 40
0
 41
0
  0
VERTEX
  8
0
 10
6.00635
 20
3.47911
 30
0.0
 40
0
 41
0
  0
VERTEX
  8
0
 10
6.00613
 20
3.47949
 30
0.0
 40
0
 41
0
  0
VERTEX
  8
0
 10
6.00558
 20
3.48042
 30
0.0
 40
0
 41
0
  0
VERTEX
  8
0
 10
6.00006
 20
3.48921
 30
0.0
 40
0
 41
0
  0
VERTEX
  8
0
 10
5.99951
 20
3.49007
 30
0.0
 40
0
 41
0
  0
VERTEX
  8
0
 10
5.99935
 20
3.49029
 30
0.0
 40
0
 41
0
  0
VERTEX
  8
0
 10
5.9981
 20
3.49224
 30
0.0
 40
0
 41
0
  0
VERTEX
  8
0
 10
5.99799
 20
3.4924
 30
0.0
 40
0
 41
0
  0
VERTEX
  8
0
 10
5.99724
 20
3.49354
 30
0.0
 40
0
 41
0
  0
VERTEX
  8
0
 10
5.98964
 20
3.50418
 30
0.0
 40
0
 41
0
  0
VERTEX
  8
0
 10
5.98888
 20
3.50521
 30
0.0
 40
0
 41
0
  0
VERTEX
  8
0
 10
5.98628
 20
3.50868
 30
0.0
 40
0
 41
0
  0
VERTEX
  8
0
 10
5.9579
 20
3.54042
 30
0.0
 40
0
 41
0
  0
VERTEX
  8
0
 10
5.95486
 20
3.54329
 30
0.0
 40
0
 41
0
  0
VERTEX
  8
0
 10
5.95281
 20
3.54525
 30
0.0
 40
0
 41
0
  0
VERTEX
  8
0
 10
5.93132
 20
3.56353
 30
0.0
 40
0
 41
0
  0
VERTEX
  8
0
 10
5.9291
 20
3.56521
 30
0.0
 40
0
 41
0
  0
VERTEX
  8
0
 10
5.92796
 20
3.56608
 30
0.0
 40
0
 41
0
  0
VERTEX
  8
0
 10
5.91644
 20
3.57438
 30
0.0
 40
0
 41
0
  0
VERTEX
  8
0
 10
5.91531
 20
3.57514
 30
0.0
 40
0
 41
0
  0
VERTEX
  8
0
 10
5.91531
 20
3.57514
 30
0.0
 40
0
 41
0
  0
VERTEX
  8
0
 10
5.91525
 20
3.57514
 30
0.0
 40
0
 41
0
  0
VERTEX
  8
0
 10
5.91525
 20
3.57514
 30
0.0
 40
0
 41
0
  0
VERTEX
  8
0
 10
5.91407
 20
3.57596
 30
0.0
 40
0
 41
0
  0
VERTEX
  8
0
 10
5.90207
 20
3.58365
 30
0.0
 40
0
 41
0
  0
VERTEX
  8
0
 10
5.90088
 20
3.58436
 30
0.0
 40
0
 41
0
  0
VERTEX
  8
0
 10
5.90088
 20
3.58436
 30
0.0
 40
0
 41
0
  0
VERTEX
  8
0
 10
5.90082
 20
3.58436
 30
0.0
 40
0
 41
0
  0
VERTEX
  8
0
 10
5.90082
 20
3.58436
 30
0.0
 40
0
 41
0
  0
VERTEX
  8
0
 10
5.89958
 20
3.58512
 30
0.0
 40
0
 41
0
  0
VERTEX
  8
0
 10
5.88704
 20
3.59229
 30
0.0
 40
0
 41
0
  0
VERTEX
  8
0
 10
5.88579
 20
3.59293
 30
0.0
 40
0
 41
0
  0
VERTEX
  8
0
 10
5.88433
 20
3.59369
 30
0.0
 40
0
 41
0
  0
VERTEX
  8
0
 10
5.8699
 20
3.60069
 30
0.0
 40
0
 41
0
  0
VERTEX
  8
0
 10
5.86849
 20
3.60135
 30
0.0
 40
0
 41
0
  0
VERTEX
  8
0
 10
5.86594
 20
3.60249
 30
0.0
 40
0
 41
0
  0
VERTEX
  8
0
 10
5.84028
 20
3.61236
 30
0.0
 40
0
 41
0
  0
VERTEX
  8
0
 10
5.83768
 20
3.61317
 30
0.0
 40
0
 41
0
  0
VERTEX
  8
0
 10
5.83729
 20
3.61333
 30
0.0
 40
0
 41
0
  0
VERTEX
  8
0
 10
5.8335
 20
3.61469
 30
0.0
 40
0
 41
0
  0
VERTEX
  8
0
 10
5.83311
 20
3.61481
 30
0.0
 40
0
 41
0
  0
VERTEX
  8
0
 10
5.8316
 20
3.61529
 30
0.0
 40
0
 41
0
  0
VERTEX
  8
0
 10
5.81657
 20
3.61947
 30
0.0
 40
0
 41
0
  0
VERTEX
  8
0
 10
5.81506
 20
3.61985
 30
0.0
 40
0
 41
0
  0
VERTEX
  8
0
 10
5.81201
 20
3.62061
 30
0.0
 40
0
 41
0
  0
VERTEX
  8
0
 10
5.78125
 20
3.62619
 30
0.0
 40
0
 41
0
  0
VERTEX
  8
0
 10
5.77815
 20
3.62651
 30
0.0
 40
0
 41
0
  0
VERTEX
  8
0
 10
5.77501
 20
3.6269
 30
0.0
 40
0
 41
0
  0
VERTEX
  8
0
 10
5.74897
 20
3.62879
 30
0.0
 40
0
 41
0
  0
VERTEX
  8
0
 10
5.74029
 20
3.62879
 30
0.0
 40
0
 41
0
  0
VERTEX
  8
0
 10
5.72157
 20
3.62879
 30
0.0
 40
0
 41
0
  0
VERTEX
  8
0
 10
5.67139
 20
3.62147
 30
0.0
 40
0
 41
0
  0
VERTEX
  8
0
 10
5.66542
 20
3.61996
 30
0.0
 40
0
 41
0
  0
VERTEX
  8
0
 10
5.6614
 20
3.61897
 30
0.0
 40
0
 41
0
  0
VERTEX
  8
0
 10
5.62256
 20
3.6059
 30
0.0
 40
0
 41
0
  0
VERTEX
  8
0
 10
5.61882
 20
3.60422
 30
0.0
 40
0
 41
0
  0
VERTEX
  8
0
 10
5.61312
 20
3.60178
 30
0.0
 40
0
 41
0
  0
VERTEX
  8
0
 10
5.55903
 20
3.56988
 30
0.0
 40
0
 41
0
  0
VERTEX
  8
0
 10
5.55388
 20
3.56592
 30
0.0
 40
0
 41
0
  0
VERTEX
  8
0
 10
5.55192
 20
3.56446
 30
0.0
 40
0
 41
0
  0
VERTEX
  8
0
 10
5.53375
 20
3.54921
 30
0.0
 40
0
 41
0
  0
VERTEX
  8
0
 10
5.53201
 20
3.54758
 30
0.0
 40
0
 41
0
  0
VERTEX
  8
0
 10
5.53114
 20
3.54682
 30
0.0
 40
0
 41
0
  0
VERTEX
  8
0
 10
5.52268
 20
3.53874
 30
0.0
 40
0
 41
0
  0
VERTEX
  8
0
 10
5.52186
 20
3.53788
 30
0.0
 40
0
 41
0
  0
VERTEX
  8
0
 10
5.521
 20
3.53706
 30
0.0
 40
0
 41
0
  0
VERTEX
  8
0
 10
5.51297
 20
3.52869
 30
0.0
 40
0
 41
0
  0
VERTEX
  8
0
 10
5.51221
 20
3.52783
 30
0.0
 40
0
 41
0
  0
VERTEX
  8
0
 10
5.51139
 20
3.52696
 30
0.0
 40
0
 41
0
  0
VERTEX
  8
0
 10
5.50379
 20
3.51824
 30
0.0
 40
0
 41
0
  0
VERTEX
  8
0
 10
5.5031
 20
3.51731
 30
0.0
 40
0
 41
0
  0
VERTEX
  8
0
 10
5.50233
 20
3.51644
 30
0.0
 40
0
 41
0
  0
VERTEX
  8
0
 10
5.49511
 20
3.50743
 30
0.0
 40
0
 41
0
  0
VERTEX
  8
0
 10
5.49447
 20
3.50651
 30
0.0
 40
0
 41
0
  0
VERTEX
  8
0
 10
5.49094
 20
3.5019
 30
0.0
 40
0
 41
0
  0
VERTEX
  8
0
 10
5.46132
 20
3.45204
 30
0.0
 40
0
 41
0
  0
VERTEX
  8
0
 10
5.45893
 20
3.44661
 30
0.0
 40
0
 41
0
  0
VERTEX
  8
0
 10
5.45844
 20
3.44553
 30
0.0
 40
0
 41
0
  0
VERTEX
  8
0
 10
5.45383
 20
3.43463
 30
0.0
 40
0
 41
0
  0
VERTEX
  8
0
 10
5.4534
 20
3.43349
 30
0.0
 40
0
 41
0
  0
VERTEX
  8
0
 10
5.4534
 20
3.43349
 30
0.0
 40
0
 41
0
  0
VERTEX
  8
0
 10
5.4534
 20
3.43349
 30
0.0
 40
0
 41
0
  0
VERTEX
  8
0
 10
5.4534
 20
3.43349
 30
0.0
 40
0
 41
0
  0
VERTEX
  8
0
 10
5.4529
 20
3.4324
 30
0.0
 40
0
 41
0
  0
VERTEX
  8
0
 10
5.44868
 20
3.42111
 30
0.0
 40
0
 41
0
  0
VERTEX
  8
0
 10
5.44829
 20
3.41997
 30
0.0
 40
0
 41
0
  0
VERTEX
  8
0
 10
5.44749
 20
3.41769
 30
0.0
 40
0
 41
0
  0
VERTEX
  8
0
 10
5.44026
 20
3.39432
 30
0.0
 40
0
 41
0
  0
VERTEX
  8
0
 10
5.43967
 20
3.39187
 30
0.0
 40
0
 41
0
  0
VERTEX
  8
0
 10
5.43935
 20
3.39068
 30
0.0
 40
0
 41
0
  0
VERTEX
  8
0
 10
5.43642
 20
3.37853
 30
0.0
 40
0
 41
0
  0
VERTEX
  8
0
 10
5.43614
 20
3.37728
 30
0.0
 40
0
 41
0
  0
VERTEX
  8
0
 10
5.21826
 20
3.37728
 30
0.0
 40
0
 41
0
  0
VERTEX
  8
0
 10
5.21886
 20
3.38217
 30
0.0
 40
0
 41
0
  0
VERTEX
  8
0
 10
5.22711
 20
3.42979
 30
0.0
 40
0
 41
0
  0
VERTEX
  8
0
 10
5.22819
 20
3.4344
 30
0.0
 40
0
 41
0
  0
VERTEX
  8
0
 10
5.22851
 20
3.43599
 30
0.0
 40
0
 41
0
  0
VERTEX
  8
0
 10
5.23236
 20
3.45139
 30
0.0
 40
0
 41
0
  0
VERTEX
  8
0
 10
5.23281
 20
3.4529
 30
0.0
 40
0
 41
0
  0
VERTEX
  8
0
 10
5.23318
 20
3.45449
 30
0.0
 40
0
 41
0
  0
VERTEX
  8
0
 10
5.23753
 20
3.46963
 30
0.0
 40
0
 41
0
  0
VERTEX
  8
0
 10
5.23801
 20
3.47108
 30
0.0
 40
0
 41
0
  0
VERTEX
  8
0
 10
5.23876
 20
3.47374
 30
0.0
 40
0
 41
0
  0
VERTEX
  8
0
 10
5.24756
 20
3.49946
 30
0.0
 40
0
 41
0
  0
VERTEX
  8
0
 10
5.24854
 20
3.50196
 30
0.0
 40
0
 41
0
  0
VERTEX
  8
0
 10
5.24864
 20
3.50239
 30
0.0
 40
0
 41
0
  0
VERTEX
  8
0
 10
5.25011
 20
3.50629
 30
0.0
 40
0
 41
0
  0
VERTEX
  8
0
 10
5.25028
 20
3.50667
 30
0.0
 40
0
 41
0
  0
VERTEX
  8
0
 10
5.25043
 20
3.50711
 30
0.0
 40
0
 41
0
  0
VERTEX
  8
0
 10
5.25217
 20
3.51133
 30
0.0
 40
0
 41
0
  0
VERTEX
  8
0
 10
5.25233
 20
3.51172
 30
0.0
 40
0
 41
0
  0
VERTEX
  8
0
 10
5.25331
 20
3.51421
 30
0.0
 40
0
 41
0
  0
VERTEX
  8
0
 10
5.26394
 20
3.53874
 30
0.0
 40
0
 41
0
  0
VERTEX
  8
0
 10
5.26508
 20
3.54113
 30
0.0
 40
0
 41
0
  0
VERTEX
  8
0
 10
5.26774
 20
3.54682
 30
0.0
 40
0
 41
0
  0
VERTEX
  8
0
 10
5.29872
 20
3.6014
 30
0.0
 40
0
 41
0
  0
VERTEX
  8
0
 10
5.30225
 20
3.60667
 30
0.0
 40
0
 41
0
  0
VERTEX
  8
0
 10
5.30485
 20
3.61062
 30
0.0
 40
0
 41
0
  0
VERTEX
  8
0
 10
5.33356
 20
3.64914
 30
0.0
 40
0
 41
0
  0
VERTEX
  8
0
 10
5.33669
 20
3.65289
 30
0.0
 40
0
 41
0
  0
VERTEX
  8
0
 10
5.33822
 20
3.65479
 30
0.0
 40
0
 41
0
  0
VERTEX
  8
0
 10
5.35417
 20
3.67285
 30
0.0
 40
0
 41
0
  0
VERTEX
  8
0
 10
5.35579
 20
3.67458
 30
0.0
 40
0
 41
0
  0
VERTEX
  8
0
 10
5.35742
 20
3.67638
 30
0.0
 40
0
 41
0
  0
VERTEX
  8
0
 10
5.37414
 20
3.69347
 30
0.0
 40
0
 41
0
  0
VERTEX
  8
0
 10
5.37587
 20
3.6951
 30
0.0
 40
0
 41
0
  0
VERTEX
  8
0
 10
5.37929
 20
3.6984
 30
0.0
 40
0
 41
0
  0
VERTEX
  8
0
 10
5.41504
 20
3.72954
 30
0.0
 40
0
 41
0
  0
VERTEX
  8
0
 10
5.41878
 20
3.73242
 30
0.0
 40
0
 41
0
  0
VERTEX
  8
0
 10
5.42247
 20
3.73535
 30
0.0
 40
0
 41
0
  0
VERTEX
  8
0
 10
5.46137
 20
3.76243
 30
0.0
 40
0
 41
0
  0
VERTEX
  8
0
 10
5.46544
 20
3.76492
 30
0.0
 40
0
 41
0
  0
VERTEX
  8
0
 10
5.46744
 20
3.76617
 30
0.0
 40
0
 41
0
  0
VERTEX
  8
0
 10
5.48807
 20
3.77821
 30
0.0
 40
0
 41
0
  0
VERTEX
  8
0
 10
5.49018
 20
3.77935
 30
0.0
 40
0
 41
0
  0
VERTEX
  8
0
 10
5.49224
 20
3.78054
 30
0.0
 40
0
 41
0
  0
VERTEX
  8
0
 10
5.51361
 20
3.7915
 30
0.0
 40
0
 41
0
  0
VERTEX
  8
0
 10
5.51585
 20
3.79254
 30
0.0
 40
0
 41
0
  0
VERTEX
  8
0
 10
5.52924
 20
3.79893
 30
0.0
 40
0
 41
0
  0
VERTEX
  8
0
 10
5.59799
 20
3.82379
 30
0.0
 40
0
 41
0
  0
VERTEX
  8
0
 10
5.66872
 20
3.83897
 30
0.0
 40
0
 41
0
  0
VERTEX
  8
0
 10
5.68321
 20
3.84056
 30
0.0
 40
0
 41
0
  0
VERTEX
  8
0
 10
5.68804
 20
3.8411
 30
0.0
 40
0
 41
0
  0
VERTEX
  8
0
 10
5.72831
 20
3.84375
 30
0.0
 40
0
 41
0
  0
VERTEX
  8
0
 10
5.74175
 20
3.84375
 30
0.0
 40
0
 41
0
  0
VERTEX
  8
0
 10
5.74778
 20
3.84375
 30
0.0
 40
0
 41
0
  0
VERTEX
  8
0
 10
5.76383
 20
3.84326
 30
0.0
 40
0
 41
0
  0
VERTEX
  8
0
 10
5.76585
 20
3.84315
 30
0.0
 40
0
 41
0
  0
VERTEX
  8
0
 10
5.76639
 20
3.84315
 30
0.0
 40
0
 41
0
  0
VERTEX
  8
0
 10
5.77192
 20
3.84289
 30
0.0
 40
0
 41
0
  0
VERTEX
  8
0
 10
5.77251
 20
3.84283
 30
0.0
 40
0
 41
0
  0
VERTEX
  8
0
 10
5.77403
 20
3.84278
 30
0.0
 40
0
 41
0
  0
VERTEX
  8
0
 10
5.78956
 20
3.84164
 30
0.0
 40
0
 41
0
  0
VERTEX
  8
0
 10
5.79113
 20
3.84147
 30
0.0
 40
0
 41
0
  0
VERTEX
  8
0
 10
5.79156
 20
3.84142
 30
0.0
 40
0
 41
0
  0
VERTEX
  8
0
 10
5.79639
 20
3.84099
 30
0.0
 40
0
 41
0
  0
VERTEX
  8
0
 10
5.79688
 20
3.84093
 30
0.0
 40
0
 41
0
  0
VERTEX
  8
0
 10
5.79878
 20
3.84076
 30
0.0
 40
0
 41
0
  0
VERTEX
  8
0
 10
5.81787
 20
3.83838
 30
0.0
 40
0
 41
0
  0
VERTEX
  8
0
 10
5.81982
 20
3.83811
 30
0.0
 40
0
 41
0
  0
VERTEX
  8
0
 10
5.82021
 20
3.83806
 30
0.0
 40
0
 41
0
  0
VERTEX
  8
0
 10
5.82454
 20
3.8374
 30
0.0
 40
0
 41
0
  0
VERTEX
  8
0
 10
5.82497
 20
3.83729
 30
0.0
 40
0
 41
0
  0
VERTEX
  8
0
 10
5.82667
 20
3.83703
 30
0.0
 40
0
 41
0
  0
VERTEX
  8
0
 10
5.84364
 20
3.83404
 30
0.0
 40
0
 41
0
  0
VERTEX
  8
0
 10
5.84538
 20
3.83365
 30
0.0
 40
0
 41
0
  0
VERTEX
  8
0
 10
5.8456
 20
3.83361
 30
0.0
 40
0
 41
0
  0
VERTEX
  8
0
 10
5.84831
 20
3.83306
 30
0.0
 40
0
 41
0
  0
VERTEX
  8
0
 10
5.84858
 20
3.83301
 30
0.0
 40
0
 41
0
  0
VERTEX
  8
0
 10
5.85265
 20
3.83219
 30
0.0
 40
0
 41
0
  0
VERTEX
  8
0
 10
5.89285
 20
3.82189
 30
0.0
 40
0
 41
0
  0
VERTEX
  8
0
 10
5.89681
 20
3.82064
 30
0.0
 40
0
 41
0
  0
VERTEX
  8
0
 10
5.89703
 20
3.82058
 30
0.0
 40
0
 41
0
  0
VERTEX
  8
0
 10
5.89914
 20
3.81993
 30
0.0
 40
0
 41
0
  0
VERTEX
  8
0
 10
5.89936
 20
3.81982
 30
0.0
 40
0
 41
0
  0
VERTEX
  8
0
 10
5.90338
 20
3.81858
 30
0.0
 40
0
 41
0
  0
VERTEX
  8
0
 10
5.94308
 20
3.80382
 30
0.0
 40
0
 41
0
  0
VERTEX
  8
0
 10
5.94706
 20
3.80214
 30
0.0
 40
0
 41
0
  0
VERTEX
  8
0
 10
5.94706
 20
3.80214
 30
0.0
 40
0
 41
0
  0
VERTEX
  8
0
 10
5.94715
 20
3.80208
 30
0.0
 40
0
 41
0
  0
VERTEX
  8
0
 10
5.94715
 20
3.80208
 30
0.0
 40
0
 41
0
  0
VERTEX
  8
0
 10
5.9291
 20
3.84565
 30
0.0
 40
0
 41
0
  0
VERTEX
  8
0
 10
5.86176
 20
3.97097
 30
0.0
 40
0
 41
0
  0
VERTEX
  8
0
 10
5.75418
 20
4.12278
 30
0.0
 40
0
 41
0
  0
VERTEX
  8
0
 10
5.62674
 20
4.25592
 30
0.0
 40
0
 41
0
  0
VERTEX
  8
0
 10
5.4821
 20
4.3686
 30
0.0
 40
0
 41
0
  0
VERTEX
  8
0
 10
5.32264
 20
4.45921
 30
0.0
 40
0
 41
0
  0
VERTEX
  8
0
 10
5.15093
 20
4.52604
 30
0.0
 40
0
 41
0
  0
VERTEX
  8
0
 10
4.96951
 20
4.56743
 30
0.0
 40
0
 41
0
  0
VERTEX
  8
0
 10
4.82801
 20
4.58171
 30
0.0
 40
0
 41
0
  0
VERTEX
  8
0
 10
4.78087
 20
4.58171
 30
0.0
 40
0
 41
0
  0
SEQEND
 8
0
  0
POLYLINE
  8
0
 62
     93
 66
     1
 10
0
 20
0
 30
0.0
 70
     1
 40
0
 41
0
  0
VERTEX
  8
0
 10
4.25922
 20
3.8189
 30
0.0
 40
0
 41
0
  0
VERTEX
  8
0
 10
4.47493
 20
3.8189
 30
0.0
 40
0
 41
0
  0
VERTEX
  8
0
 10
4.47493
 20
2.81793
 30
0.0
 40
0
 41
0
  0
VERTEX
  8
0
 10
4.25922
 20
2.81793
 30
0.0
 40
0
 41
0
  0
VERTEX
  8
0
 10
4.25922
 20
3.8189
 30
0.0
 40
0
 41
0
  0
SEQEND
 8
0
  0
POLYLINE
  8
0
 62
     93
 66
     1
 10
0
 20
0
 30
0.0
 70
     1
 40
0
 41
0
  0
VERTEX
  8
0
 10
3.53543
 20
3.42258
 30
0.0
 40
0
 41
0
  0
VERTEX
  8
0
 10
3.91054
 20
3.42258
 30
0.0
 40
0
 41
0
  0
VERTEX
  8
0
 10
3.91054
 20
3.21278
 30
0.0
 40
0
 41
0
  0
VERTEX
  8
0
 10
3.53543
 20
3.21278
 30
0.0
 40
0
 41
0
  0
VERTEX
  8
0
 10
3.53543
 20
3.42258
 30
0.0
 40
0
 41
0
  0
SEQEND
 8
0
  0
POLYLINE
  8
0
 62
     93
 66
     1
 10
0
 20
0
 30
0.0
 70
     1
 40
0
 41
0
  0
VERTEX
  8
0
 10
4.56853
 20
3.02778
 30
0.0
 40
0
 41
0
  0
VERTEX
  8
0
 10
4.85807
 20
3.02778
 30
0.0
 40
0
 41
0
  0
VERTEX
  8
0
 10
4.85807
 20
2.81793
 30
0.0
 40
0
 41
0
  0
VERTEX
  8
0
 10
4.56853
 20
2.81793
 30
0.0
 40
0
 41
0
  0
VERTEX
  8
0
 10
4.56853
 20
3.02778
 30
0.0
 40
0
 41
0
  0
SEQEND
 8
0
  0
POLYLINE
  8
0
 62
     140
 66
     1
 10
0
 20
0
 30
0.0
 70
     1
 40
0
 41
0
  0
VERTEX
  8
0
 10
3.80544
 20
4.58171
 30
0.0
 40
0
 41
0
  0
VERTEX
  8
0
 10
3.75965
 20
4.58171
 30
0.0
 40
0
 41
0
  0
VERTEX
  8
0
 10
3.62229
 20
4.56825
 30
0.0
 40
0
 41
0
  0
VERTEX
  8
0
 10
3.44581
 20
4.52914
 30
0.0
 40
0
 41
0
  0
VERTEX
  8
0
 10
3.27826
 20
4.46593
 30
0.0
 40
0
 41
0
  0
VERTEX
  8
0
 10
3.12196
 20
4.3801
 30
0.0
 40
0
 41
0
  0
VERTEX
  8
0
 10
2.97928
 20
4.27322
 30
0.0
 40
0
 41
0
  0
VERTEX
  8
0
 10
2.85254
 20
4.14671
 30
0.0
 40
0
 41
0
  0
VERTEX
  8
0
 10
2.74408
 20
4.00211
 30
0.0
 40
0
 41
0
  0
VERTEX
  8
0
 10
2.67512
 20
3.8826
 30
0.0
 40
0
 41
0
  0
VERTEX
  8
0
 10
2.65619
 20
3.84088
 30
0.0
 40
0
 41
0
  0
VERTEX
  8
0
 10
2.67551
 20
3.83974
 30
0.0
 40
0
 41
0
  0
VERTEX
  8
0
 10
2.76432
 20
3.81478
 30
0.0
 40
0
 41
0
  0
VERTEX
  8
0
 10
2.84267
 20
3.76417
 30
0.0
 40
0
 41
0
  0
VERTEX
  8
0
 10
2.85678
 20
3.75017
 30
0.0
 40
0
 41
0
  0
VERTEX
  8
0
 10
2.86746
 20
3.73964
 30
0.0
 40
0
 41
0
  0
VERTEX
  8
0
 10
2.89546
 20
3.70378
 30
0.0
 40
0
 41
0
  0
VERTEX
  8
0
 10
2.92307
 20
3.65147
 30
0.0
 40
0
 41
0
  0
VERTEX
  8
0
 10
2.93967
 20
3.59337
 30
0.0
 40
0
 41
0
  0
VERTEX
  8
0
 10
2.94521
 20
3.54536
 30
0.0
 40
0
 41
0
  0
VERTEX
  8
0
 10
2.94521
 20
3.52935
 30
0.0
 40
0
 41
0
  0
VERTEX
  8
0
 10
2.94521
 20
3.49181
 30
0.0
 40
0
 41
0
  0
VERTEX
  8
0
 10
2.91026
 20
3.37912
 30
0.0
 40
0
 41
0
  0
VERTEX
  8
0
 10
2.82883
 20
3.28293
 30
0.0
 40
0
 41
0
  0
VERTEX
  8
0
 10
2.80556
 20
3.26758
 30
0.0
 40
0
 41
0
  0
VERTEX
  8
0
 10
2.79411
 20
3.26014
 30
0.0
 40
0
 41
0
  0
VERTEX
  8
0
 10
2.72715
 20
3.23269
 30
0.0
 40
0
 41
0
  0
VERTEX
  8
0
 10
2.64729
 20
3.2181
 30
0.0
 40
0
 41
0
  0
VERTEX
  8
0
 10
2.62939
 20
3.21712
 30
0.0
 40
0
 41
0
  0
VERTEX
  8
0
 10
2.62939
 20
3.42697
 30
0.0
 40
0
 41
0
  0
VERTEX
  8
0
 10
2.63607
 20
3.42774
 30
0.0
 40
0
 41
0
  0
VERTEX
  8
0
 10
2.66499
 20
3.43397
 30
0.0
 40
0
 41
0
  0
VERTEX
  8
0
 10
2.68782
 20
3.44358
 30
0.0
 40
0
 41
0
  0
VERTEX
  8
0
 10
2.69151
 20
3.44601
 30
0.0
 40
0
 41
0
  0
VERTEX
  8
0
 10
2.69868
 20
3.4509
 30
0.0
 40
0
 41
0
  0
VERTEX
  8
0
 10
2.72385
 20
3.4815
 30
0.0
 40
0
 41
0
  0
VERTEX
  8
0
 10
2.73465
 20
3.51742
 30
0.0
 40
0
 41
0
  0
VERTEX
  8
0
 10
2.73465
 20
3.52935
 30
0.0
 40
0
 41
0
  0
VERTEX
  8
0
 10
2.73465
 20
3.53922
 30
0.0
 40
0
 41
0
  0
VERTEX
  8
0
 10
2.72732
 20
3.56868
 30
0.0
 40
0
 41
0
  0
VERTEX
  8
0
 10
2.71029
 20
3.59674
 30
0.0
 40
0
 41
0
  0
VERTEX
  8
0
 10
2.7054
 20
3.60172
 30
0.0
 40
0
 41
0
  0
VERTEX
  8
0
 10
2.70063
 20
3.60672
 30
0.0
 40
0
 41
0
  0
VERTEX
  8
0
 10
2.67339
 20
3.62424
 30
0.0
 40
0
 41
0
  0
VERTEX
  8
0
 10
2.64421
 20
3.63172
 30
0.0
 40
0
 41
0
  0
VERTEX
  8
0
 10
2.6345
 20
3.63172
 30
0.0
 40
0
 41
0
  0
VERTEX
  8
0
 10
2.62056
 20
3.63172
 30
0.0
 40
0
 41
0
  0
VERTEX
  8
0
 10
2.58263
 20
3.61914
 30
0.0
 40
0
 41
0
  0
VERTEX
  8
0
 10
2.57883
 20
3.61664
 30
0.0
 40
0
 41
0
  0
VERTEX
  8
0
 10
2.57275
 20
3.59224
 30
0.0
 40
0
 41
0
  0
VERTEX
  8
0
 10
2.54156
 20
3.34293
 30
0.0
 40
0
 41
0
  0
VERTEX
  8
0
 10
2.54144
 20
3.31771
 30
0.0
 40
0
 41
0
  0
VERTEX
  8
0
 10
2.54156
 20
3.29237
 30
0.0
 40
0
 41
0
  0
VERTEX
  8
0
 10
2.57297
 20
3.04167
 30
0.0
 40
0
 41
0
  0
VERTEX
  8
0
 10
2.5791
 20
3.01704
 30
0.0
 40
0
 41
0
  0
VERTEX
  8
0
 10
2.58365
 20
3.01471
 30
0.0
 40
0
 41
0
  0
VERTEX
  8
0
 10
2.62728
 20
3.00293
 30
0.0
 40
0
 41
0
  0
VERTEX
  8
0
 10
2.64182
 20
3.00293
 30
0.0
 40
0
 41
0
  0
VERTEX
  8
0
 10
2.65576
 20
3.00293
 30
0.0
 40
0
 41
0
  0
VERTEX
  8
0
 10
2.69769
 20
3.01318
 30
0.0
 40
0
 41
0
  0
VERTEX
  8
0
 10
2.73606
 20
3.03706
 30
0.0
 40
0
 41
0
  0
VERTEX
  8
0
 10
2.74268
 20
3.04389
 30
0.0
 40
0
 41
0
  0
VERTEX
  8
0
 10
2.74864
 20
3.05012
 30
0.0
 40
0
 41
0
  0
VERTEX
  8
0
 10
2.76953
 20
3.08501
 30
0.0
 40
0
 41
0
  0
VERTEX
  8
0
 10
2.77854
 20
3.12164
 30
0.0
 40
0
 41
0
  0
VERTEX
  8
0
 10
2.77854
 20
3.13379
 30
0.0
 40
0
 41
0
  0
VERTEX
  8
0
 10
2.77854
 20
3.14057
 30
0.0
 40
0
 41
0
  0
VERTEX
  8
0
 10
2.77729
 20
3.15793
 30
0.0
 40
0
 41
0
  0
VERTEX
  8
0
 10
2.77707
 20
3.16086
 30
0.0
 40
0
 41
0
  0
VERTEX
  8
0
 10
2.7856
 20
3.16368
 30
0.0
 40
0
 41
0
  0
VERTEX
  8
0
 10
2.87028
 20
3.21121
 30
0.0
 40
0
 41
0
  0
VERTEX
  8
0
 10
2.87869
 20
3.21789
 30
0.0
 40
0
 41
0
  0
VERTEX
  8
0
 10
2.88624
 20
3.22401
 30
0.0
 40
0
 41
0
  0
VERTEX
  8
0
 10
2.9496
 20
3.29161
 30
0.0
 40
0
 41
0
  0
VERTEX
  8
0
 10
2.95475
 20
3.29904
 30
0.0
 40
0
 41
0
  0
VERTEX
  8
0
 10
2.96121
 20
3.28722
 30
0.0
 40
0
 41
0
  0
VERTEX
  8
0
 10
2.98378
 20
3.22575
 30
0.0
 40
0
 41
0
  0
VERTEX
  8
0
 10
2.99349
 20
3.16721
 30
0.0
 40
0
 41
0
  0
VERTEX
  8
0
 10
2.99349
 20
3.14768
 30
0.0
 40
0
 41
0
  0
VERTEX
  8
0
 10
2.99349
 20
3.11469
 30
0.0
 40
0
 41
0
  0
VERTEX
  8
0
 10
2.96951
 20
3.01574
 30
0.0
 40
0
 41
0
  0
VERTEX
  8
0
 10
2.91363
 20
2.92057
 30
0.0
 40
0
 41
0
  0
VERTEX
  8
0
 10
2.89768
 20
2.90349
 30
0.0
 40
0
 41
0
  0
VERTEX
  8
0
 10
2.88124
 20
2.88596
 30
0.0
 40
0
 41
0
  0
VERTEX
  8
0
 10
2.78836
 20
2.82314
 30
0.0
 40
0
 41
0
  0
VERTEX
  8
0
 10
2.68093
 20
2.79363
 30
0.0
 40
0
 41
0
  0
VERTEX
  8
0
 10
2.65733
 20
2.79269
 30
0.0
 40
0
 41
0
  0
VERTEX
  8
0
 10
2.67626
 20
2.75114
 30
0.0
 40
0
 41
0
  0
VERTEX
  8
0
 10
2.74533
 20
2.63189
 30
0.0
 40
0
 41
0
  0
VERTEX
  8
0
 10
2.85379
 20
2.48768
 30
0.0
 40
0
 41
0
  0
VERTEX
  8
0
 10
2.98047
 20
2.36149
 30
0.0
 40
0
 41
0
  0
VERTEX
  8
0
 10
3.12299
 20
2.25489
 30
0.0
 40
0
 41
0
  0
VERTEX
  8
0
 10
3.27908
 20
2.16932
 30
0.0
 40
0
 41
0
  0
VERTEX
  8
0
 10
3.4464
 20
2.10628
 30
0.0
 40
0
 41
0
  0
VERTEX
  8
0
 10
3.62261
 20
2.06728
 30
0.0
 40
0
 41
0
  0
VERTEX
  8
0
 10
3.75971
 20
2.05376
 30
0.0
 40
0
 41
0
  0
VERTEX
  8
0
 10
3.80544
 20
2.05371
 30
0.0
 40
0
 41
0
  0
VERTEX
  8
0
 10
3.86908
 20
2.05371
 30
0.0
 40
0
 41
0
  0
VERTEX
  8
0
 10
4.06017
 20
2.07943
 30
0.0
 40
0
 41
0
  0
VERTEX
  8
0
 10
4.29742
 20
2.1531
 30
0.0
 40
0
 41
0
  0
VERTEX
  8
0
 10
4.5121
 20
2.26964
 30
0.0
 40
0
 41
0
  0
VERTEX
  8
0
 10
4.69917
 20
2.42399
 30
0.0
 40
0
 41
0
  0
VERTEX
  8
0
 10
4.85351
 20
2.61106
 30
0.0
 40
0
 41
0
  0
VERTEX
  8
0
 10
4.97006
 20
2.82574
 30
0.0
 40
0
 41
0
  0
VERTEX
  8
0
 10
5.04368
 20
3.06299
 30
0.0
 40
0
 41
0
  0
VERTEX
  8
0
 10
5.06939
 20
3.25407
 30
0.0
 40
0
 41
0
  0
VERTEX
  8
0
 10
5.06939
 20
3.31771
 30
0.0
 40
0
 41
0
  0
VERTEX
  8
0
 10
5.06939
 20
3.3814
 30
0.0
 40
0
 41
0
  0
VERTEX
  8
0
 10
5.04368
 20
3.57249
 30
0.0
 40
0
 41
0
  0
VERTEX
  8
0
 10
4.97006
 20
3.80974
 30
0.0
 40
0
 41
0
  0
VERTEX
  8
0
 10
4.85351
 20
4.02442
 30
0.0
 40
0
 41
0
  0
VERTEX
  8
0
 10
4.69917
 20
4.21149
 30
0.0
 40
0
 41
0
  0
VERTEX
  8
0
 10
4.5121
 20
4.36583
 30
0.0
 40
0
 41
0
  0
VERTEX
  8
0
 10
4.29742
 20
4.48236
 30
0.0
 40
0
 41
0
  0
VERTEX
  8
0
 10
4.06017
 20
4.55604
 30
0.0
 40
0
 41
0
  0
VERTEX
  8
0
 10
3.86908
 20
4.58171
 30
0.0
 40
0
 41
0
  0
VERTEX
  8
0
 10
3.80544
 20
4.58171
 30
0.0
 40
0
 41
0
  0
SEQEND
 8
0
  0
POLYLINE
  8
0
 62
     140
 66
     1
 10
0
 20
0
 30
0.0
 70
     1
 40
0
 41
0
  0
VERTEX
  8
0
 10
3.20714
 20
3.8189
 30
0.0
 40
0
 41
0
  0
VERTEX
  8
0
 10
3.42285
 20
3.8189
 30
0.0
 40
0
 41
0
  0
VERTEX
  8
0
 10
3.42285
 20
2.81793
 30
0.0
 40
0
 41
0
  0
VERTEX
  8
0
 10
3.20714
 20
2.81793
 30
0.0
 40
0
 41
0
  0
VERTEX
  8
0
 10
3.20714
 20
3.8189
 30
0.0
 40
0
 41
0
  0
SEQEND
 8
0
  0
POLYLINE
  8
0
 62
     140
 66
     1
 10
0
 20
0
 30
0.0
 70
     1
 40
0
 41
0
  0
VERTEX
  8
0
 10
3.53543
 20
3.8189
 30
0.0
 40
0
 41
0
  0
VERTEX
  8
0
 10
3.91054
 20
3.8189
 30
0.0
 40
0
 41
0
  0
VERTEX
  8
0
 10
3.91054
 20
3.60906
 30
0.0
 40
0
 41
0
  0
VERTEX
  8
0
 10
3.53543
 20
3.60906
 30
0.0
 40
0
 41
0
  0
VERTEX
  8
0
 10
3.53543
 20
3.8189
 30
0.0
 40
0
 41
0
  0
SEQEND
 8
0
  0
POLYLINE
  8
0
 62
     140
 66
     1
 10
0
 20
0
 30
0.0
 70
     1
 40
0
 41
0
  0
VERTEX
  8
0
 10
4.25922
 20
3.8189
 30
0.0
 40
0
 41
0
  0
VERTEX
  8
0
 10
4.47493
 20
3.8189
 30
0.0
 40
0
 41
0
  0
VERTEX
  8
0
 10
4.47493
 20
2.81793
 30
0.0
 40
0
 41
0
  0
VERTEX
  8
0
 10
4.25922
 20
2.81793
 30
0.0
 40
0
 41
0
  0
VERTEX
  8
0
 10
4.25922
 20
3.8189
 30
0.0
 40
0
 41
0
  0
SEQEND
 8
0
  0
POLYLINE
  8
0
 62
     140
 66
     1
 10
0
 20
0
 30
0.0
 70
     1
 40
0
 41
0
  0
VERTEX
  8
0
 10
3.53543
 20
3.42258
 30
0.0
 40
0
 41
0
  0
VERTEX
  8
0
 10
3.91054
 20
3.42258
 30
0.0
 40
0
 41
0
  0
VERTEX
  8
0
 10
3.91054
 20
3.21278
 30
0.0
 40
0
 41
0
  0
VERTEX
  8
0
 10
3.53543
 20
3.21278
 30
0.0
 40
0
 41
0
  0
VERTEX
  8
0
 10
3.53543
 20
3.42258
 30
0.0
 40
0
 41
0
  0
SEQEND
 8
0
  0
POLYLINE
  8
0
 62
     140
 66
     1
 10
0
 20
0
 30
0.0
 70
     1
 40
0
 41
0
  0
VERTEX
  8
0
 10
4.56853
 20
3.02778
 30
0.0
 40
0
 41
0
  0
VERTEX
  8
0
 10
4.85807
 20
3.02778
 30
0.0
 40
0
 41
0
  0
VERTEX
  8
0
 10
4.85807
 20
2.81793
 30
0.0
 40
0
 41
0
  0
VERTEX
  8
0
 10
4.56853
 20
2.81793
 30
0.0
 40
0
 41
0
  0
VERTEX
  8
0
 10
4.56853
 20
3.02778
 30
0.0
 40
0
 41
0
  0
SEQEND
 8
0
  0
POLYLINE
  8
0
 62
     20
 66
     1
 10
0
 20
0
 30
0.0
 70
     1
 40
0
 41
0
  0
VERTEX
  8
0
 10
2.82997
 20
4.58171
 30
0.0
 40
0
 41
0
  0
VERTEX
  8
0
 10
2.78336
 20
4.58171
 30
0.0
 40
0
 41
0
  0
VERTEX
  8
0
 10
2.64356
 20
4.56787
 30
0.0
 40
0
 41
0
  0
VERTEX
  8
0
 10
2.46414
 20
4.5275
 30
0.0
 40
0
 41
0
  0
VERTEX
  8
0
 10
2.29411
 20
4.46229
 30
0.0
 40
0
 41
0
  0
VERTEX
  8
0
 10
2.13596
 20
4.37381
 30
0.0
 40
0
 41
0
  0
VERTEX
  8
0
 10
1.99203
 20
4.26361
 30
0.0
 40
0
 41
0
  0
VERTEX
  8
0
 10
1.86475
 20
4.13331
 30
0.0
 40
0
 41
0
  0
VERTEX
  8
0
 10
1.75667
 20
3.9846
 30
0.0
 40
0
 41
0
  0
VERTEX
  8
0
 10
1.68858
 20
3.86171
 30
0.0
 40
0
 41
0
  0
VERTEX
  8
0
 10
1.67014
 20
3.8189
 30
0.0
 40
0
 41
0
  0
VERTEX
  8
0
 10
2.17611
 20
3.8189
 30
0.0
 40
0
 41
0
  0
VERTEX
  8
0
 10
2.17611
 20
3.60906
 30
0.0
 40
0
 41
0
  0
VERTEX
  8
0
 10
1.60146
 20
3.60906
 30
0.0
 40
0
 41
0
  0
VERTEX
  8
0
 10
1.59565
 20
3.58524
 30
0.0
 40
0
 41
0
  0
VERTEX
  8
0
 10
1.56614
 20
3.34229
 30
0.0
 40
0
 41
0
  0
VERTEX
  8
0
 10
1.56603
 20
3.31771
 30
0.0
 40
0
 41
0
  0
VERTEX
  8
0
 10
1.56603
 20
3.25407
 30
0.0
 40
0
 41
0
  0
VERTEX
  8
0
 10
1.59169
 20
3.06299
 30
0.0
 40
0
 41
0
  0
VERTEX
  8
0
 10
1.66531
 20
2.82574
 30
0.0
 40
0
 41
0
  0
VERTEX
  8
0
 10
1.78185
 20
2.61106
 30
0.0
 40
0
 41
0
  0
VERTEX
  8
0
 10
1.93619
 20
2.42399
 30
0.0
 40
0
 41
0
  0
VERTEX
  8
0
 10
2.12326
 20
2.26964
 30
0.0
 40
0
 41
0
  0
VERTEX
  8
0
 10
2.33794
 20
2.1531
 30
0.0
 40
0
 41
0
  0
VERTEX
  8
0
 10
2.57519
 20
2.07943
 30
0.0
 40
0
 41
0
  0
VERTEX
  8
0
 10
2.76628
 20
2.05371
 30
0.0
 40
0
 41
0
  0
VERTEX
  8
0
 10
2.82997
 20
2.05371
 30
0.0
 40
0
 41
0
  0
VERTEX
  8
0
 10
2.89187
 20
2.05371
 30
0.0
 40
0
 41
0
  0
VERTEX
  8
0
 10
3.07769
 20
2.07824
 30
0.0
 40
0
 41
0
  0
VERTEX
  8
0
 10
3.31364
 20
2.14996
 30
0.0
 40
0
 41
0
  0
VERTEX
  8
0
 10
3.53119
 20
2.26611
 30
0.0
 40
0
 41
0
  0
VERTEX
  8
0
 10
3.6799
 20
2.38015
 30
0.0
 40
0
 41
0
  0
VERTEX
  8
0
 10
3.72374
 20
2.42393
 30
0.0
 40
0
 41
0
  0
VERTEX
  8
0
 10
3.76753
 20
2.46778
 30
0.0
 40
0
 41
0
  0
VERTEX
  8
0
 10
3.88157
 20
2.61649
 30
0.0
 40
0
 41
0
  0
VERTEX
  8
0
 10
3.99772
 20
2.83404
 30
0.0
 40
0
 41
0
  0
VERTEX
  8
0
 10
4.06944
 20
3.06999
 30
0.0
 40
0
 41
0
  0
VERTEX
  8
0
 10
4.09397
 20
3.25581
 30
0.0
 40
0
 41
0
  0
VERTEX
  8
0
 10
4.09397
 20
3.31771
 30
0.0
 40
0
 41
0
  0
VERTEX
  8
0
 10
4.09397
 20
3.37967
 30
0.0
 40
0
 41
0
  0
VERTEX
  8
0
 10
4.06944
 20
3.56549
 30
0.0
 40
0
 41
0
  0
VERTEX
  8
0
 10
3.99772
 20
3.80143
 30
0.0
 40
0
 41
0
  0
VERTEX
  8
0
 10
3.88157
 20
4.01899
 30
0.0
 40
0
 41
0
  0
VERTEX
  8
0
 10
3.76753
 20
4.16769
 30
0.0
 40
0
 41
0
  0
VERTEX
  8
0
 10
3.72374
 20
4.21149
 30
0.0
 40
0
 41
0
  0
VERTEX
  8
0
 10
3.6799
 20
4.25532
 30
0.0
 40
0
 41
0
  0
VERTEX
  8
0
 10
3.53119
 20
4.36936
 30
0.0
 40
0
 41
0
  0
VERTEX
  8
0
 10
3.31364
 20
4.48551
 30
0.0
 40
0
 41
0
  0
VERTEX
  8
0
 10
3.07769
 20
4.55724
 30
0.0
 40
0
 41
0
  0
VERTEX
  8
0
 10
2.89187
 20
4.58171
 30
0.0
 40
0
 41
0
  0
VERTEX
  8
0
 10
2.82997
 20
4.58171
 30
0.0
 40
0
 41
0
  0
SEQEND
 8
0
  0
POLYLINE
  8
0
 62
     20
 66
     1
 10
0
 20
0
 30
0.0
 70
     1
 40
0
 41
0
  0
VERTEX
  8
0
 10
2.63525
 20
3.84153
 30
0.0
 40
0
 41
0
  0
VERTEX
  8
0
 10
2.65082
 20
3.84153
 30
0.0
 40
0
 41
0
  0
VERTEX
  8
0
 10
2.6976
 20
3.83583
 30
0.0
 40
0
 41
0
  0
VERTEX
  8
0
 10
2.75532
 20
3.81874
 30
0.0
 40
0
 41
0
  0
VERTEX
  8
0
 10
2.80838
 20
3.79015
 30
0.0
 40
0
 41
0
  0
VERTEX
  8
0
 10
2.84565
 20
3.76118
 30
0.0
 40
0
 41
0
  0
VERTEX
  8
0
 10
2.85678
 20
3.75017
 30
0.0
 40
0
 41
0
  0
VERTEX
  8
0
 10
2.86746
 20
3.73964
 30
0.0
 40
0
 41
0
  0
VERTEX
  8
0
 10
2.89546
 20
3.70378
 30
0.0
 40
0
 41
0
  0
VERTEX
  8
0
 10
2.92307
 20
3.65147
 30
0.0
 40
0
 41
0
  0
VERTEX
  8
0
 10
2.93967
 20
3.59337
 30
0.0
 40
0
 41
0
  0
VERTEX
  8
0
 10
2.94521
 20
3.54536
 30
0.0
 40
0
 41
0
  0
VERTEX
  8
0
 10
2.94521
 20
3.52935
 30
0.0
 40
0
 41
0
  0
VERTEX
  8
0
 10
2.94521
 20
3.49181
 30
0.0
 40
0
 41
0
  0
VERTEX
  8
0
 10
2.91026
 20
3.37912
 30
0.0
 40
0
 41
0
  0
VERTEX
  8
0
 10
2.82883
 20
3.28293
 30
0.0
 40
0
 41
0
  0
VERTEX
  8
0
 10
2.80556
 20
3.26758
 30
0.0
 40
0
 41
0
  0
VERTEX
  8
0
 10
2.79411
 20
3.26014
 30
0.0
 40
0
 41
0
  0
VERTEX
  8
0
 10
2.72715
 20
3.23269
 30
0.0
 40
0
 41
0
  0
VERTEX
  8
0
 10
2.64729
 20
3.2181
 30
0.0
 40
0
 41
0
  0
VERTEX
  8
0
 10
2.62939
 20
3.21712
 30
0.0
 40
0
 41
0
  0
VERTEX
  8
0
 10
2.62939
 20
3.42697
 30
0.0
 40
0
 41
0
  0
VERTEX
  8
0
 10
2.63607
 20
3.42774
 30
0.0
 40
0
 41
0
  0
VERTEX
  8
0
 10
2.66499
 20
3.43397
 30
0.0
 40
0
 41
0
  0
VERTEX
  8
0
 10
2.68782
 20
3.44358
 30
0.0
 40
0
 41
0
  0
VERTEX
  8
0
 10
2.69151
 20
3.44601
 30
0.0
 40
0
 41
0
  0
VERTEX
  8
0
 10
2.69868
 20
3.4509
 30
0.0
 40
0
 41
0
  0
VERTEX
  8
0
 10
2.72385
 20
3.4815
 30
0.0
 40
0
 41
0
  0
VERTEX
  8
0
 10
2.73465
 20
3.51742
 30
0.0
 40
0
 41
0
  0
VERTEX
  8
0
 10
2.73465
 20
3.52935
 30
0.0
 40
0
 41
0
  0
VERTEX
  8
0
 10
2.73465
 20
3.53922
 30
0.0
 40
0
 41
0
  0
VERTEX
  8
0
 10
2.72732
 20
3.56868
 30
0.0
 40
0
 41
0
  0
VERTEX
  8
0
 10
2.71029
 20
3.59674
 30
0.0
 40
0
 41
0
  0
VERTEX
  8
0
 10
2.7054
 20
3.60172
 30
0.0
 40
0
 41
0
  0
VERTEX
  8
0
 10
2.70063
 20
3.60672
 30
0.0
 40
0
 41
0
  0
VERTEX
  8
0
 10
2.67339
 20
3.62424
 30
0.0
 40
0
 41
0
  0
VERTEX
  8
0
 10
2.64421
 20
3.63172
 30
0.0
 40
0
 41
0
  0
VERTEX
  8
0
 10
2.6345
 20
3.63172
 30
0.0
 40
0
 41
0
  0
VERTEX
  8
0
 10
2.62185
 20
3.63172
 30
0.0
 40
0
 41
0
  0
VERTEX
  8
0
 10
2.58404
 20
3.62007
 30
0.0
 40
0
 41
0
  0
VERTEX
  8
0
 10
2.55404
 20
3.59272
 30
0.0
 40
0
 41
0
  0
VERTEX
  8
0
 10
2.54969
 20
3.5849
 30
0.0
 40
0
 41
0
  0
VERTEX
  8
0
 10
2.54775
 20
3.58138
 30
0.0
 40
0
 41
0
  0
VERTEX
  8
0
 10
2.53185
 20
3.52778
 30
0.0
 40
0
 41
0
  0
VERTEX
  8
0
 10
2.53065
 20
3.52056
 30
0.0
 40
0
 41
0
  0
VERTEX
  8
0
 10
2.32086
 20
3.52056
 30
0.0
 40
0
 41
0
  0
VERTEX
  8
0
 10
2.32146
 20
3.53971
 30
0.0
 40
0
 41
0
  0
VERTEX
  8
0
 10
2.33817
 20
3.62608
 30
0.0
 40
0
 41
0
  0
VERTEX
  8
0
 10
2.37321
 20
3.69997
 30
0.0
 40
0
 41
0
  0
VERTEX
  8
0
 10
2.38297
 20
3.71289
 30
0.0
 40
0
 41
0
  0
VERTEX
  8
0
 10
2.39051
 20
3.72304
 30
0.0
 40
0
 41
0
  0
VERTEX
  8
0
 10
2.43343
 20
3.76682
 30
0.0
 40
0
 41
0
  0
VERTEX
  8
0
 10
2.48313
 20
3.8016
 30
0.0
 40
0
 41
0
  0
VERTEX
  8
0
 10
2.49414
 20
3.80718
 30
0.0
 40
0
 41
0
  0
VERTEX
  8
0
 10
2.50521
 20
3.81293
 30
0.0
 40
0
 41
0
  0
VERTEX
  8
0
 10
2.56267
 20
3.83296
 30
0.0
 40
0
 41
0
  0
VERTEX
  8
0
 10
2.61708
 20
3.84153
 30
0.0
 40
0
 41
0
  0
VERTEX
  8
0
 10
2.63525
 20
3.84153
 30
0.0
 40
0
 41
0
  0
SEQEND
 8
0
  0
POLYLINE
  8
0
 62
     20
 66
     1
 10
0
 20
0
 30
0.0
 70
     1
 40
0
 41
0
  0
VERTEX
  8
0
 10
3.20714
 20
3.8189
 30
0.0
 40
0
 41
0
  0
VERTEX
  8
0
 10
3.42285
 20
3.8189
 30
0.0
 40
0
 41
0
  0
VERTEX
  8
0
 10
3.42285
 20
2.81793
 30
0.0
 40
0
 41
0
  0
VERTEX
  8
0
 10
3.20714
 20
2.81793
 30
0.0
 40
0
 41
0
  0
VERTEX
  8
0
 10
3.20714
 20
3.8189
 30
0.0
 40
0
 41
0
  0
SEQEND
 8
0
  0
POLYLINE
  8
0
 62
     20
 66
     1
 10
0
 20
0
 30
0.0
 70
     1
 40
0
 41
0
  0
VERTEX
  8
0
 10
3.53543
 20
3.8189
 30
0.0
 40
0
 41
0
  0
VERTEX
  8
0
 10
3.91054
 20
3.8189
 30
0.0
 40
0
 41
0
  0
VERTEX
  8
0
 10
3.91054
 20
3.60906
 30
0.0
 40
0
 41
0
  0
VERTEX
  8
0
 10
3.53543
 20
3.60906
 30
0.0
 40
0
 41
0
  0
VERTEX
  8
0
 10
3.53543
 20
3.8189
 30
0.0
 40
0
 41
0
  0
SEQEND
 8
0
  0
POLYLINE
  8
0
 62
     20
 66
     1
 10
0
 20
0
 30
0.0
 70
     1
 40
0
 41
0
  0
VERTEX
  8
0
 10
1.73156
 20
3.48693
 30
0.0
 40
0
 41
0
  0
VERTEX
  8
0
 10
1.94721
 20
3.48693
 30
0.0
 40
0
 41
0
  0
VERTEX
  8
0
 10
1.94721
 20
2.81793
 30
0.0
 40
0
 41
0
  0
VERTEX
  8
0
 10
1.73156
 20
2.81793
 30
0.0
 40
0
 41
0
  0
VERTEX
  8
0
 10
1.73156
 20
3.48693
 30
0.0
 40
0
 41
0
  0
SEQEND
 8
0
  0
POLYLINE
  8
0
 62
     20
 66
     1
 10
0
 20
0
 30
0.0
 70
     1
 40
0
 41
0
  0
VERTEX
  8
0
 10
3.53543
 20
3.42258
 30
0.0
 40
0
 41
0
  0
VERTEX
  8
0
 10
3.91054
 20
3.42258
 30
0.0
 40
0
 41
0
  0
VERTEX
  8
0
 10
3.91054
 20
3.21278
 30
0.0
 40
0
 41
0
  0
VERTEX
  8
0
 10
3.53543
 20
3.21278
 30
0.0
 40
0
 41
0
  0
VERTEX
  8
0
 10
3.53543
 20
3.42258
 30
0.0
 40
0
 41
0
  0
SEQEND
 8
0
  0
POLYLINE
  8
0
 62
     20
 66
     1
 10
0
 20
0
 30
0.0
 70
     1
 40
0
 41
0
  0
VERTEX
  8
0
 10
2.95475
 20
3.29904
 30
0.0
 40
0
 41
0
  0
VERTEX
  8
0
 10
2.96121
 20
3.28722
 30
0.0
 40
0
 41
0
  0
VERTEX
  8
0
 10
2.98378
 20
3.22575
 30
0.0
 40
0
 41
0
  0
VERTEX
  8
0
 10
2.99349
 20
3.16721
 30
0.0
 40
0
 41
0
  0
VERTEX
  8
0
 10
2.99349
 20
3.14768
 30
0.0
 40
0
 41
0
  0
VERTEX
  8
0
 10
2.99349
 20
3.11469
 30
0.0
 40
0
 41
0
  0
VERTEX
  8
0
 10
2.96951
 20
3.01574
 30
0.0
 40
0
 41
0
  0
VERTEX
  8
0
 10
2.91363
 20
2.92057
 30
0.0
 40
0
 41
0
  0
VERTEX
  8
0
 10
2.89768
 20
2.90349
 30
0.0
 40
0
 41
0
  0
VERTEX
  8
0
 10
2.88037
 20
2.88499
 30
0.0
 40
0
 41
0
  0
VERTEX
  8
0
 10
2.78179
 20
2.82015
 30
0.0
 40
0
 41
0
  0
VERTEX
  8
0
 10
2.67681
 20
2.79237
 30
0.0
 40
0
 41
0
  0
VERTEX
  8
0
 10
2.64182
 20
2.79237
 30
0.0
 40
0
 41
0
  0
VERTEX
  8
0
 10
2.61501
 20
2.79237
 30
0.0
 40
0
 41
0
  0
VERTEX
  8
0
 10
2.53467
 20
2.80881
 30
0.0
 40
0
 41
0
  0
VERTEX
  8
0
 10
2.45361
 20
2.84717
 30
0.0
 40
0
 41
0
  0
VERTEX
  8
0
 10
2.43853
 20
2.85813
 30
0.0
 40
0
 41
0
  0
VERTEX
  8
0
 10
2.41575
 20
2.87472
 30
0.0
 40
0
 41
0
  0
VERTEX
  8
0
 10
2.33251
 20
2.98101
 30
0.0
 40
0
 41
0
  0
VERTEX
  8
0
 10
2.29021
 20
3.11843
 30
0.0
 40
0
 41
0
  0
VERTEX
  8
0
 10
2.28792
 20
3.15061
 30
0.0
 40
0
 41
0
  0
VERTEX
  8
0
 10
2.50364
 20
3.15061
 30
0.0
 40
0
 41
0
  0
VERTEX
  8
0
 10
2.50532
 20
3.13954
 30
0.0
 40
0
 41
0
  0
VERTEX
  8
0
 10
2.51654
 20
3.09343
 30
0.0
 40
0
 41
0
  0
VERTEX
  8
0
 10
2.53153
 20
3.05974
 30
0.0
 40
0
 41
0
  0
VERTEX
  8
0
 10
2.53504
 20
3.05485
 30
0.0
 40
0
 41
0
  0
VERTEX
  8
0
 10
2.5415
 20
3.04622
 30
0.0
 40
0
 41
0
  0
VERTEX
  8
0
 10
2.58111
 20
3.01594
 30
0.0
 40
0
 41
0
  0
VERTEX
  8
0
 10
2.62663
 20
3.00293
 30
0.0
 40
0
 41
0
  0
VERTEX
  8
0
 10
2.64182
 20
3.00293
 30
0.0
 40
0
 41
0
  0
VERTEX
  8
0
 10
2.65576
 20
3.00293
 30
0.0
 40
0
 41
0
  0
VERTEX
  8
0
 10
2.69769
 20
3.01318
 30
0.0
 40
0
 41
0
  0
VERTEX
  8
0
 10
2.73606
 20
3.03706
 30
0.0
 40
0
 41
0
  0
VERTEX
  8
0
 10
2.74268
 20
3.04389
 30
0.0
 40
0
 41
0
  0
VERTEX
  8
0
 10
2.74864
 20
3.05012
 30
0.0
 40
0
 41
0
  0
VERTEX
  8
0
 10
2.76953
 20
3.08501
 30
0.0
 40
0
 41
0
  0
VERTEX
  8
0
 10
2.77854
 20
3.12164
 30
0.0
 40
0
 41
0
  0
VERTEX
  8
0
 10
2.77854
 20
3.13379
 30
0.0
 40
0
 41
0
  0
VERTEX
  8
0
 10
2.77854
 20
3.14057
 30
0.0
 40
0
 41
0
  0
VERTEX
  8
0
 10
2.77729
 20
3.15793
 30
0.0
 40
0
 41
0
  0
VERTEX
  8
0
 10
2.77707
 20
3.16086
 30
0.0
 40
0
 41
0
  0
VERTEX
  8
0
 10
2.7856
 20
3.16368
 30
0.0
 40
0
 41
0
  0
VERTEX
  8
0
 10
2.87028
 20
3.21121
 30
0.0
 40
0
 41
0
  0
VERTEX
  8
0
 10
2.87869
 20
3.21789
 30
0.0
 40
0
 41
0
  0
VERTEX
  8
0
 10
2.88624
 20
3.22401
 30
0.0
 40
0
 41
0
  0
VERTEX
  8
0
 10
2.9496
 20
3.29161
 30
0.0
 40
0
 41
0
  0
VERTEX
  8
0
 10
2.95475
 20
3.29904
 30
0.0
 40
0
 41
0
  0
SEQEND
 8
0
  0
POLYLINE
  8
0
 62
     30
 66
     1
 10
0
 20
0
 30
0.0
 70
     1
 40
0
 41
0
  0
VERTEX
  8
0
 10
1.85454
 20
4.58171
 30
0.0
 40
0
 41
0
  0
VERTEX
  8
0
 10
1.79258
 20
4.58171
 30
0.0
 40
0
 41
0
  0
VERTEX
  8
0
 10
1.60678
 20
4.55724
 30
0.0
 40
0
 41
0
  0
VERTEX
  8
0
 10
1.37082
 20
4.48551
 30
0.0
 40
0
 41
0
  0
VERTEX
  8
0
 10
1.15327
 20
4.36936
 30
0.0
 40
0
 41
0
  0
VERTEX
  8
0
 10
1.00456
 20
4.25532
 30
0.0
 40
0
 41
0
  0
VERTEX
  8
0
 10
0.960775
 20
4.21149
 30
0.0
 40
0
 41
0
  0
VERTEX
  8
0
 10
0.916938
 20
4.16769
 30
0.0
 40
0
 41
0
  0
VERTEX
  8
0
 10
0.802897
 20
4.01899
 30
0.0
 40
0
 41
0
  0
VERTEX
  8
0
 10
0.68674
 20
3.80143
 30
0.0
 40
0
 41
0
  0
VERTEX
  8
0
 10
0.615018
 20
3.56549
 30
0.0
 40
0
 41
0
  0
VERTEX
  8
0
 10
0.590549
 20
3.37967
 30
0.0
 40
0
 41
0
  0
VERTEX
  8
0
 10
0.590549
 20
3.31771
 30
0.0
 40
0
 41
0
  0
VERTEX
  8
0
 10
0.590603
 20
3.30197
 30
0.0
 40
0
 41
0
  0
VERTEX
  8
0
 10
0.603299
 20
3.14501
 30
0.0
 40
0
 41
0
  0
VERTEX
  8
0
 10
0.60574
 20
3.12944
 30
0.0
 40
0
 41
0
  0
VERTEX
  8
0
 10
0.797146
 20
3.50157
 30
0.0
 40
0
 41
0
  0
VERTEX
  8
0
 10
0.917046
 20
3.26687
 30
0.0
 40
0
 41
0
  0
VERTEX
  8
0
 10
0.690918
 20
2.82742
 30
0.0
 40
0
 41
0
  0
VERTEX
  8
0
 10
0.709093
 20
2.78418
 30
0.0
 40
0
 41
0
  0
VERTEX
  8
0
 10
0.776639
 20
2.65978
 30
0.0
 40
0
 41
0
  0
VERTEX
  8
0
 10
0.884386
 20
2.50906
 30
0.0
 40
0
 41
0
  0
VERTEX
  8
0
 10
1.01166
 20
2.37701
 30
0.0
 40
0
 41
0
  0
VERTEX
  8
0
 10
1.15603
 20
2.26519
 30
0.0
 40
0
 41
0
  0
VERTEX
  8
0
 10
1.315
 20
2.17535
 30
0.0
 40
0
 41
0
  0
VERTEX
  8
0
 10
1.48606
 20
2.10906
 30
0.0
 40
0
 41
0
  0
VERTEX
  8
0
 10
1.66672
 20
2.06793
 30
0.0
 40
0
 41
0
  0
VERTEX
  8
0
 10
1.80757
 20
2.05376
 30
0.0
 40
0
 41
0
  0
VERTEX
  8
0
 10
1.85454
 20
2.05371
 30
0.0
 40
0
 41
0
  0
VERTEX
  8
0
 10
1.91644
 20
2.05371
 30
0.0
 40
0
 41
0
  0
VERTEX
  8
0
 10
2.10226
 20
2.07824
 30
0.0
 40
0
 41
0
  0
VERTEX
  8
0
 10
2.33822
 20
2.14996
 30
0.0
 40
0
 41
0
  0
VERTEX
  8
0
 10
2.55578
 20
2.26611
 30
0.0
 40
0
 41
0
  0
VERTEX
  8
0
 10
2.70449
 20
2.38015
 30
0.0
 40
0
 41
0
  0
VERTEX
  8
0
 10
2.74832
 20
2.42393
 30
0.0
 40
0
 41
0
  0
VERTEX
  8
0
 10
2.7921
 20
2.46778
 30
0.0
 40
0
 41
0
  0
VERTEX
  8
0
 10
2.90614
 20
2.61649
 30
0.0
 40
0
 41
0
  0
VERTEX
  8
0
 10
3.02225
 20
2.83404
 30
0.0
 40
0
 41
0
  0
VERTEX
  8
0
 10
3.09397
 20
3.06999
 30
0.0
 40
0
 41
0
  0
VERTEX
  8
0
 10
3.11849
 20
3.25581
 30
0.0
 40
0
 41
0
  0
VERTEX
  8
0
 10
3.11849
 20
3.31771
 30
0.0
 40
0
 41
0
  0
VERTEX
  8
0
 10
3.11849
 20
3.37967
 30
0.0
 40
0
 41
0
  0
VERTEX
  8
0
 10
3.09397
 20
3.56549
 30
0.0
 40
0
 41
0
  0
VERTEX
  8
0
 10
3.02225
 20
3.80143
 30
0.0
 40
0
 41
0
  0
VERTEX
  8
0
 10
2.90614
 20
4.01899
 30
0.0
 40
0
 41
0
  0
VERTEX
  8
0
 10
2.7921
 20
4.16769
 30
0.0
 40
0
 41
0
  0
VERTEX
  8
0
 10
2.74832
 20
4.21149
 30
0.0
 40
0
 41
0
  0
VERTEX
  8
0
 10
2.70449
 20
4.25532
 30
0.0
 40
0
 41
0
  0
VERTEX
  8
0
 10
2.55578
 20
4.36936
 30
0.0
 40
0
 41
0
  0
VERTEX
  8
0
 10
2.33822
 20
4.48551
 30
0.0
 40
0
 41
0
  0
VERTEX
  8
0
 10
2.10226
 20
4.55724
 30
0.0
 40
0
 41
0
  0
VERTEX
  8
0
 10
1.91644
 20
4.58171
 30
0.0
 40
0
 41
0
  0
VERTEX
  8
0
 10
1.85454
 20
4.58171
 30
0.0
 40
0
 41
0
  0
SEQEND
 8
0
  0
POLYLINE
  8
0
 62
     30
 66
     1
 10
0
 20
0
 30
0.0
 70
     1
 40
0
 41
0
  0
VERTEX
  8
0
 10
0.983615
 20
3.86496
 30
0.0
 40
0
 41
0
  0
VERTEX
  8
0
 10
1.52317
 20
2.81793
 30
0.0
 40
0
 41
0
  0
VERTEX
  8
0
 10
1.2819
 20
2.81793
 30
0.0
 40
0
 41
0
  0
VERTEX
  8
0
 10
1.19488
 20
2.98535
 30
0.0
 40
0
 41
0
  0
VERTEX
  8
0
 10
0.895833
 20
2.98535
 30
0.0
 40
0
 41
0
  0
VERTEX
  8
0
 10
1.00331
 20
3.19521
 30
0.0
 40
0
 41
0
  0
VERTEX
  8
0
 10
1.08816
 20
3.19521
 30
0.0
 40
0
 41
0
  0
VERTEX
  8
0
 10
0.862196
 20
3.63097
 30
0.0
 40
0
 41
0
  0
VERTEX
  8
0
 10
0.983615
 20
3.86496
 30
0.0
 40
0
 41
0
  0
SEQEND
 8
0
  0
POLYLINE
  8
0
 62
     30
 66
     1
 10
0
 20
0
 30
0.0
 70
     1
 40
0
 41
0
  0
VERTEX
  8
0
 10
2.63525
 20
3.84153
 30
0.0
 40
0
 41
0
  0
VERTEX
  8
0
 10
2.65082
 20
3.84153
 30
0.0
 40
0
 41
0
  0
VERTEX
  8
0
 10
2.6976
 20
3.83583
 30
0.0
 40
0
 41
0
  0
VERTEX
  8
0
 10
2.75532
 20
3.81874
 30
0.0
 40
0
 41
0
  0
VERTEX
  8
0
 10
2.80838
 20
3.79015
 30
0.0
 40
0
 41
0
  0
VERTEX
  8
0
 10
2.84565
 20
3.76118
 30
0.0
 40
0
 41
0
  0
VERTEX
  8
0
 10
2.85678
 20
3.75017
 30
0.0
 40
0
 41
0
  0
VERTEX
  8
0
 10
2.86746
 20
3.73964
 30
0.0
 40
0
 41
0
  0
VERTEX
  8
0
 10
2.89546
 20
3.70378
 30
0.0
 40
0
 41
0
  0
VERTEX
  8
0
 10
2.92307
 20
3.65147
 30
0.0
 40
0
 41
0
  0
VERTEX
  8
0
 10
2.93967
 20
3.59337
 30
0.0
 40
0
 41
0
  0
VERTEX
  8
0
 10
2.94521
 20
3.54536
 30
0.0
 40
0
 41
0
  0
VERTEX
  8
0
 10
2.94521
 20
3.52935
 30
0.0
 40
0
 41
0
  0
VERTEX
  8
0
 10
2.94521
 20
3.49181
 30
0.0
 40
0
 41
0
  0
VERTEX
  8
0
 10
2.91026
 20
3.37912
 30
0.0
 40
0
 41
0
  0
VERTEX
  8
0
 10
2.82883
 20
3.28293
 30
0.0
 40
0
 41
0
  0
VERTEX
  8
0
 10
2.80556
 20
3.26758
 30
0.0
 40
0
 41
0
  0
VERTEX
  8
0
 10
2.79411
 20
3.26014
 30
0.0
 40
0
 41
0
  0
VERTEX
  8
0
 10
2.72715
 20
3.23269
 30
0.0
 40
0
 41
0
  0
VERTEX
  8
0
 10
2.64729
 20
3.2181
 30
0.0
 40
0
 41
0
  0
VERTEX
  8
0
 10
2.62939
 20
3.21712
 30
0.0
 40
0
 41
0
  0
VERTEX
  8
0
 10
2.62939
 20
3.42697
 30
0.0
 40
0
 41
0
  0
VERTEX
  8
0
 10
2.63607
 20
3.42774
 30
0.0
 40
0
 41
0
  0
VERTEX
  8
0
 10
2.66499
 20
3.43397
 30
0.0
 40
0
 41
0
  0
VERTEX
  8
0
 10
2.68782
 20
3.44358
 30
0.0
 40
0
 41
0
  0
VERTEX
  8
0
 10
2.69151
 20
3.44601
 30
0.0
 40
0
 41
0
  0
VERTEX
  8
0
 10
2.69868
 20
3.4509
 30
0.0
 40
0
 41
0
  0
VERTEX
  8
0
 10
2.72385
 20
3.4815
 30
0.0
 40
0
 41
0
  0
VERTEX
  8
0
 10
2.73465
 20
3.51742
 30
0.0
 40
0
 41
0
  0
VERTEX
  8
0
 10
2.73465
 20
3.52935
 30
0.0
 40
0
 41
0
  0
VERTEX
  8
0
 10
2.73465
 20
3.53922
 30
0.0
 40
0
 41
0
  0
VERTEX
  8
0
 10
2.72732
 20
3.56868
 30
0.0
 40
0
 41
0
  0
VERTEX
  8
0
 10
2.71029
 20
3.59674
 30
0.0
 40
0
 41
0
  0
VERTEX
  8
0
 10
2.7054
 20
3.60172
 30
0.0
 40
0
 41
0
  0
VERTEX
  8
0
 10
2.70063
 20
3.60672
 30
0.0
 40
0
 41
0
  0
VERTEX
  8
0
 10
2.67339
 20
3.62424
 30
0.0
 40
0
 41
0
  0
VERTEX
  8
0
 10
2.64421
 20
3.63172
 30
0.0
 40
0
 41
0
  0
VERTEX
  8
0
 10
2.6345
 20
3.63172
 30
0.0
 40
0
 41
0
  0
VERTEX
  8
0
 10
2.62185
 20
3.63172
 30
0.0
 40
0
 41
0
  0
VERTEX
  8
0
 10
2.58404
 20
3.62007
 30
0.0
 40
0
 41
0
  0
VERTEX
  8
0
 10
2.55404
 20
3.59272
 30
0.0
 40
0
 41
0
  0
VERTEX
  8
0
 10
2.54969
 20
3.5849
 30
0.0
 40
0
 41
0
  0
VERTEX
  8
0
 10
2.54775
 20
3.58138
 30
0.0
 40
0
 41
0
  0
VERTEX
  8
0
 10
2.53185
 20
3.52778
 30
0.0
 40
0
 41
0
  0
VERTEX
  8
0
 10
2.53065
 20
3.52056
 30
0.0
 40
0
 41
0
  0
VERTEX
  8
0
 10
2.32086
 20
3.52056
 30
0.0
 40
0
 41
0
  0
VERTEX
  8
0
 10
2.32146
 20
3.53971
 30
0.0
 40
0
 41
0
  0
VERTEX
  8
0
 10
2.33817
 20
3.62608
 30
0.0
 40
0
 41
0
  0
VERTEX
  8
0
 10
2.37321
 20
3.69997
 30
0.0
 40
0
 41
0
  0
VERTEX
  8
0
 10
2.38297
 20
3.71289
 30
0.0
 40
0
 41
0
  0
VERTEX
  8
0
 10
2.39051
 20
3.72304
 30
0.0
 40
0
 41
0
  0
VERTEX
  8
0
 10
2.43343
 20
3.76682
 30
0.0
 40
0
 41
0
  0
VERTEX
  8
0
 10
2.48313
 20
3.8016
 30
0.0
 40
0
 41
0
  0
VERTEX
  8
0
 10
2.49414
 20
3.80718
 30
0.0
 40
0
 41
0
  0
VERTEX
  8
0
 10
2.50521
 20
3.81293
 30
0.0
 40
0
 41
0
  0
VERTEX
  8
0
 10
2.56267
 20
3.83296
 30
0.0
 40
0
 41
0
  0
VERTEX
  8
0
 10
2.61708
 20
3.84153
 30
0.0
 40
0
 41
0
  0
VERTEX
  8
0
 10
2.63525
 20
3.84153
 30
0.0
 40
0
 41
0
  0
SEQEND
 8
0
  0
POLYLINE
  8
0
 62
     30
 66
     1
 10
0
 20
0
 30
0.0
 70
     1
 40
0
 41
0
  0
VERTEX
  8
0
 10
1.50119
 20
3.8189
 30
0.0
 40
0
 41
0
  0
VERTEX
  8
0
 10
2.17611
 20
3.8189
 30
0.0
 40
0
 41
0
  0
VERTEX
  8
0
 10
2.17611
 20
3.60906
 30
0.0
 40
0
 41
0
  0
VERTEX
  8
0
 10
1.50119
 20
3.60906
 30
0.0
 40
0
 41
0
  0
VERTEX
  8
0
 10
1.50119
 20
3.8189
 30
0.0
 40
0
 41
0
  0
SEQEND
 8
0
  0
POLYLINE
  8
0
 62
     30
 66
     1
 10
0
 20
0
 30
0.0
 70
     1
 40
0
 41
0
  0
VERTEX
  8
0
 10
1.73156
 20
3.48693
 30
0.0
 40
0
 41
0
  0
VERTEX
  8
0
 10
1.94721
 20
3.48693
 30
0.0
 40
0
 41
0
  0
VERTEX
  8
0
 10
1.94721
 20
2.81793
 30
0.0
 40
0
 41
0
  0
VERTEX
  8
0
 10
1.73156
 20
2.81793
 30
0.0
 40
0
 41
0
  0
VERTEX
  8
0
 10
1.73156
 20
3.48693
 30
0.0
 40
0
 41
0
  0
SEQEND
 8
0
  0
POLYLINE
  8
0
 62
     30
 66
     1
 10
0
 20
0
 30
0.0
 70
     1
 40
0
 41
0
  0
VERTEX
  8
0
 10
2.95475
 20
3.29904
 30
0.0
 40
0
 41
0
  0
VERTEX
  8
0
 10
2.96121
 20
3.28722
 30
0.0
 40
0
 41
0
  0
VERTEX
  8
0
 10
2.98378
 20
3.22575
 30
0.0
 40
0
 41
0
  0
VERTEX
  8
0
 10
2.99349
 20
3.16721
 30
0.0
 40
0
 41
0
  0
VERTEX
  8
0
 10
2.99349
 20
3.14768
 30
0.0
 40
0
 41
0
  0
VERTEX
  8
0
 10
2.99349
 20
3.11469
 30
0.0
 40
0
 41
0
  0
VERTEX
  8
0
 10
2.96951
 20
3.01574
 30
0.0
 40
0
 41
0
  0
VERTEX
  8
0
 10
2.91363
 20
2.92057
 30
0.0
 40
0
 41
0
  0
VERTEX
  8
0
 10
2.89768
 20
2.90349
 30
0.0
 40
0
 41
0
  0
VERTEX
  8
0
 10
2.88037
 20
2.88499
 30
0.0
 40
0
 41
0
  0
VERTEX
  8
0
 10
2.78179
 20
2.82015
 30
0.0
 40
0
 41
0
  0
VERTEX
  8
0
 10
2.67681
 20
2.79237
 30
0.0
 40
0
 41
0
  0
VERTEX
  8
0
 10
2.64182
 20
2.79237
 30
0.0
 40
0
 41
0
  0
VERTEX
  8
0
 10
2.61501
 20
2.79237
 30
0.0
 40
0
 41
0
  0
VERTEX
  8
0
 10
2.53467
 20
2.80881
 30
0.0
 40
0
 41
0
  0
VERTEX
  8
0
 10
2.45361
 20
2.84717
 30
0.0
 40
0
 41
0
  0
VERTEX
  8
0
 10
2.43853
 20
2.85813
 30
0.0
 40
0
 41
0
  0
VERTEX
  8
0
 10
2.41575
 20
2.87472
 30
0.0
 40
0
 41
0
  0
VERTEX
  8
0
 10
2.33251
 20
2.98101
 30
0.0
 40
0
 41
0
  0
VERTEX
  8
0
 10
2.29021
 20
3.11843
 30
0.0
 40
0
 41
0
  0
VERTEX
  8
0
 10
2.28792
 20
3.15061
 30
0.0
 40
0
 41
0
  0
VERTEX
  8
0
 10
2.50364
 20
3.15061
 30
0.0
 40
0
 41
0
  0
VERTEX
  8
0
 10
2.50532
 20
3.13954
 30
0.0
 40
0
 41
0
  0
VERTEX
  8
0
 10
2.51654
 20
3.09343
 30
0.0
 40
0
 41
0
  0
VERTEX
  8
0
 10
2.53153
 20
3.05974
 30
0.0
 40
0
 41
0
  0
VERTEX
  8
0
 10
2.53504
 20
3.05485
 30
0.0
 40
0
 41
0
  0
VERTEX
  8
0
 10
2.5415
 20
3.04622
 30
0.0
 40
0
 41
0
  0
VERTEX
  8
0
 10
2.58111
 20
3.01594
 30
0.0
 40
0
 41
0
  0
VERTEX
  8
0
 10
2.62663
 20
3.00293
 30
0.0
 40
0
 41
0
  0
VERTEX
  8
0
 10
2.64182
 20
3.00293
 30
0.0
 40
0
 41
0
  0
VERTEX
  8
0
 10
2.65576
 20
3.00293
 30
0.0
 40
0
 41
0
  0
VERTEX
  8
0
 10
2.69769
 20
3.01318
 30
0.0
 40
0
 41
0
  0
VERTEX
  8
0
 10
2.73606
 20
3.03706
 30
0.0
 40
0
 41
0
  0
VERTEX
  8
0
 10
2.74268
 20
3.04389
 30
0.0
 40
0
 41
0
  0
VERTEX
  8
0
 10
2.74864
 20
3.05012
 30
0.0
 40
0
 41
0
  0
VERTEX
  8
0
 10
2.76953
 20
3.08501
 30
0.0
 40
0
 41
0
  0
VERTEX
  8
0
 10
2.77854
 20
3.12164
 30
0.0
 40
0
 41
0
  0
VERTEX
  8
0
 10
2.77854
 20
3.13379
 30
0.0
 40
0
 41
0
  0
VERTEX
  8
0
 10
2.77854
 20
3.14057
 30
0.0
 40
0
 41
0
  0
VERTEX
  8
0
 10
2.77729
 20
3.15793
 30
0.0
 40
0
 41
0
  0
VERTEX
  8
0
 10
2.77707
 20
3.16086
 30
0.0
 40
0
 41
0
  0
VERTEX
  8
0
 10
2.7856
 20
3.16368
 30
0.0
 40
0
 41
0
  0
VERTEX
  8
0
 10
2.87028
 20
3.21121
 30
0.0
 40
0
 41
0
  0
VERTEX
  8
0
 10
2.87869
 20
3.21789
 30
0.0
 40
0
 41
0
  0
VERTEX
  8
0
 10
2.88624
 20
3.22401
 30
0.0
 40
0
 41
0
  0
VERTEX
  8
0
 10
2.9496
 20
3.29161
 30
0.0
 40
0
 41
0
  0
VERTEX
  8
0
 10
2.95475
 20
3.29904
 30
0.0
 40
0
 41
0
  0
SEQEND
 8
0
  0
ENDSEC
  0
EOF
