<?xml version="1.0" standalone="no"?>
<!DOCTYPE svg PUBLIC "-//W3C//DTD SVG 1.1//EN"
  "http://www.w3.org/Graphics/SVG/1.1/DTD/svg11.dtd">
<svg width="50.122mm" height="38.015mm" version="1.1"
   viewBox="0 0 2368 1796"
   xmlns="http://www.w3.org/2000/svg">
<polyline fill="none" stroke="black" stroke-width="1" points="111,117
111,116 
115,116 
124,109 
129,101 
129,98 
130,88 
126,79 
124,77 
122,75 
114,70 
111,70 
101,69 
92,73 
90,75 
88,77 
83,85 
83,88 
82,98 
86,107 
88,109 
90,111 
98,116 
101,116 
111,117 
"/>
<polyline fill="none" stroke="black" stroke-width="1" points="111,235
111,234 
115,234 
124,227 
129,219 
129,216 
130,206 
126,197 
124,195 
122,193 
114,188 
111,188 
101,187 
92,191 
90,193 
88,195 
83,203 
83,206 
82,216 
86,225 
88,227 
90,229 
98,234 
101,234 
111,235 
"/>
<polyline fill="none" stroke="black" stroke-width="1" points="111,353
111,352 
115,352 
124,345 
129,337 
129,334 
130,324 
126,315 
124,313 
122,311 
114,306 
111,306 
101,305 
92,309 
90,311 
88,313 
83,321 
83,324 
82,334 
86,343 
88,345 
90,347 
98,352 
101,352 
111,353 
"/>
<polyline fill="none" stroke="black" stroke-width="1" points="111,471
111,470 
115,470 
124,463 
129,455 
129,452 
130,442 
126,433 
124,431 
122,429 
114,424 
111,424 
101,423 
92,427 
90,429 
88,431 
83,439 
83,442 
82,452 
86,461 
88,463 
90,465 
98,470 
101,470 
111,471 
"/>
<polyline fill="none" stroke="black" stroke-width="1" points="111,483
101,483 
87,478 
84,475 
78,469 
73,461 
71,453 
70,442 
75,428 
78,425 
84,419 
92,414 
100,412 
111,411 
125,416 
128,419 
134,425 
139,433 
141,435 
187,435 
187,284 
214,257 
569,256 
597,281 
684,281 
730,235 
760,233 
765,222 
774,212 
783,206 
795,202 
797,202 
809,201 
826,207 
828,209 
837,217 
843,226 
847,234 
902,234 
902,232 
909,219 
911,217 
916,212 
925,206 
937,202 
939,202 
951,201 
968,207 
970,209 
979,217 
985,226 
989,238 
989,240 
990,252 
984,269 
982,271 
974,280 
965,286 
953,290 
951,290 
939,291 
922,285 
920,283 
911,275 
905,266 
901,258 
846,258 
846,260 
839,273 
837,275 
832,280 
823,286 
811,290 
809,290 
797,291 
780,285 
778,283 
769,275 
763,266 
759,258 
739,258 
694,303 
682,305 
591,305 
583,302 
574,293 
559,280 
223,280 
211,294 
211,446 
208,454 
201,458 
198,458 
139,461 
135,468 
128,475 
120,480 
112,482 
111,483 
"/>
<polyline fill="none" stroke="black" stroke-width="1" points="235,590
235,304 
521,304 
521,590 
235,590 
"/>
<polyline fill="none" stroke="black" stroke-width="1" points="230,614
525,614 
538,607 
543,599 
543,597 
545,593 
545,322 
551,316 
561,315 
572,324 
585,329 
697,329 
703,326 
711,322 
741,292 
751,291 
767,305 
769,305 
777,309 
828,310 
832,308 
845,301 
863,283 
883,282 
907,304 
922,310 
970,310 
974,308 
987,301 
1003,283 
1013,257 
1013,231 
1010,225 
1001,205 
989,193 
983,187 
981,187 
977,185 
975,185 
967,181 
958,178 
928,178 
911,185 
903,189 
892,202 
882,210 
878,210 
869,211 
861,208 
841,187 
839,187 
835,185 
833,185 
825,181 
816,178 
786,178 
782,180 
770,185 
762,189 
742,209 
730,211 
726,211 
712,218 
674,256 
662,258 
610,258 
602,255 
584,237 
571,232 
210,232 
206,234 
197,239 
191,245 
178,259 
168,269 
163,282 
163,390 
160,398 
153,402 
146,402 
138,396 
117,388 
91,388 
87,390 
70,398 
55,415 
47,435 
47,461 
49,465 
57,482 
74,497 
96,506 
118,506 
124,503 
142,495 
153,484 
203,483 
209,489 
211,501 
211,597 
216,606 
222,610 
230,614 
"/>
<polyline fill="none" stroke="black" stroke-width="1" points="643,223
643,222 
647,222 
656,215 
661,207 
661,204 
662,194 
658,185 
656,183 
654,181 
646,176 
643,176 
633,175 
624,179 
622,181 
620,183 
615,191 
615,194 
614,204 
618,213 
620,215 
622,217 
630,222 
633,222 
643,223 
"/>
<polyline fill="none" stroke="black" stroke-width="1" points="798,270
808,270 
817,266 
819,264 
821,262 
826,254 
826,251 
827,241 
823,232 
821,230 
819,228 
811,223 
808,223 
798,222 
789,226 
787,228 
785,230 
780,238 
780,241 
779,251 
783,260 
785,262 
787,264 
795,269 
798,269 
798,270 
"/>
<polyline fill="none" stroke="black" stroke-width="1" points="940,270
950,270 
959,266 
961,264 
963,262 
968,254 
968,251 
969,241 
965,232 
963,230 
961,228 
953,223 
950,223 
940,222 
931,226 
929,228 
927,230 
922,238 
922,241 
921,251 
925,260 
927,262 
929,264 
937,269 
940,269 
940,270 
"/>
<polyline fill="none" stroke="black" stroke-width="1" points="1176,374
1176,265 
1154,245 
1091,245 
1091,169 
1177,169 
1177,234 
1198,255 
1200,267 
1200,374 
1176,374 
"/>
<polyline fill="none" stroke="black" stroke-width="1" points="1272,421
1161,421 
1153,418 
1116,379 
1116,270 
1140,270 
1140,372 
1167,397 
1262,397 
1275,384 
1279,380 
1279,303 
1292,288 
1292,226 
1378,226 
1378,302 
1312,302 
1303,313 
1303,385 
1300,393 
1278,415 
1273,420 
1272,421 
"/>
<polyline fill="none" stroke="black" stroke-width="1" points="1318,684
1328,684 
1337,680 
1339,678 
1341,676 
1346,668 
1346,665 
1347,655 
1343,646 
1341,644 
1339,642 
1331,637 
1328,637 
1318,636 
1309,640 
1307,642 
1305,644 
1300,652 
1300,655 
1299,665 
1303,674 
1305,676 
1307,678 
1315,683 
1318,683 
1318,684 
"/>
<polyline fill="none" stroke="black" stroke-width="1" points="1328,695
1318,695 
1305,690 
1294,679 
1291,673 
1285,671 
1283,671 
1260,650 
1260,672 
1236,672 
1236,569 
1194,530 
1119,530 
1111,527 
1019,435 
992,435 
992,480 
870,480 
870,366 
992,366 
992,411 
1028,411 
1125,506 
1204,506 
1258,559 
1260,571 
1260,616 
1291,645 
1302,632 
1315,626 
1318,626 
1328,625 
1341,630 
1352,641 
1355,647 
1357,653 
1357,655 
1358,665 
1353,678 
1342,689 
1336,692 
1330,694 
1328,694 
1328,695 
"/>
<polyline fill="none" stroke="black" stroke-width="1" points="1296,812
1306,812 
1315,808 
1317,806 
1319,804 
1324,796 
1324,793 
1325,783 
1321,774 
1319,772 
1317,770 
1309,765 
1306,765 
1296,764 
1287,768 
1285,770 
1283,772 
1278,780 
1278,783 
1277,793 
1281,802 
1283,804 
1285,806 
1293,811 
1296,811 
1296,812 
"/>
<polyline fill="none" stroke="black" stroke-width="1" points="1286,824
1286,823 
1265,802 
1265,773 
1288,752 
1316,752 
1319,753 
1405,665 
1405,607 
1514,498 
1559,453 
1559,357 
1405,205 
1271,205 
1271,210 
1260,223 
1260,374 
1236,374 
1236,213 
1254,195 
1265,192 
1408,189 
1410,187 
1420,186 
1581,347 
1583,359 
1583,458 
1580,466 
1429,616 
1429,671 
1426,679 
1335,770 
1335,772 
1337,774 
1337,803 
1314,824 
1286,824 
"/>
<polyline fill="none" stroke="black" stroke-width="1" points="1296,932
1306,932 
1315,928 
1317,926 
1319,924 
1324,916 
1324,913 
1325,903 
1321,894 
1319,892 
1317,890 
1309,885 
1306,885 
1296,884 
1287,888 
1285,890 
1283,892 
1278,900 
1278,903 
1277,913 
1281,922 
1283,924 
1285,926 
1293,931 
1296,931 
1296,932 
"/>
<polyline fill="none" stroke="black" stroke-width="1" points="1176,932
1186,932 
1195,928 
1197,926 
1199,924 
1204,916 
1204,913 
1205,903 
1201,894 
1199,892 
1197,890 
1189,885 
1186,885 
1176,884 
1167,888 
1165,890 
1163,892 
1158,900 
1158,903 
1157,913 
1161,922 
1163,924 
1165,926 
1173,931 
1176,931 
1176,932 
"/>
<polyline fill="none" stroke="black" stroke-width="1" points="1166,824
1166,823 
1145,802 
1145,773 
1168,752 
1176,752 
1176,568 
1200,568 
1200,757 
1217,774 
1217,803 
1194,824 
1166,824 
"/>
<polyline fill="none" stroke="black" stroke-width="1" points="1176,812
1186,812 
1195,808 
1197,806 
1199,804 
1204,796 
1204,793 
1205,783 
1201,774 
1199,772 
1197,770 
1189,765 
1186,765 
1176,764 
1167,768 
1165,770 
1163,772 
1158,780 
1158,783 
1157,793 
1161,802 
1163,804 
1165,806 
1173,811 
1176,811 
1176,812 
"/>
<polyline fill="none" stroke="black" stroke-width="1" points="1056,812
1066,812 
1075,808 
1077,806 
1079,804 
1084,796 
1084,793 
1085,783 
1081,774 
1079,772 
1077,770 
1069,765 
1066,765 
1056,764 
1047,768 
1045,770 
1043,772 
1038,780 
1038,783 
1037,793 
1041,802 
1043,804 
1045,806 
1053,811 
1056,811 
1056,812 
"/>
<polyline fill="none" stroke="black" stroke-width="1" points="1025,824
1025,768 
1003,748 
1003,750 
927,750 
927,664 
1003,664 
1003,714 
1043,752 
1080,752 
1097,735 
1116,716 
1116,568 
1140,568 
1140,721 
1137,729 
1097,769 
1097,824 
1025,824 
"/>
<polyline fill="none" stroke="black" stroke-width="1" points="1056,932
1066,932 
1075,928 
1077,926 
1079,924 
1084,916 
1084,913 
1085,903 
1081,894 
1079,892 
1077,890 
1069,885 
1066,885 
1056,884 
1047,888 
1045,890 
1043,892 
1038,900 
1038,903 
1037,913 
1041,922 
1043,924 
1045,926 
1053,931 
1056,931 
1056,932 
"/>
<polyline fill="none" stroke="black" stroke-width="1" points="1272,1092
1272,1034 
1378,1034 
1378,1051 
1387,1051 
1405,1031 
1405,737 
1441,701 
1453,689 
1453,648 
1614,485 
1614,414 
1736,414 
1736,435 
1841,435 
1841,304 
2127,304 
2127,590 
1841,590 
1841,471 
1829,471 
1829,540 
1826,548 
1819,552 
1816,552 
1772,553 
1764,550 
1759,542 
1748,521 
1748,495 
1742,495 
1736,494 
1736,528 
1614,528 
1614,521 
1612,521 
1477,658 
1477,694 
1474,702 
1429,746 
1429,1037 
1426,1045 
1395,1074 
1391,1074 
1378,1076 
1378,1092 
1272,1092 
"/>
<polyline fill="none" stroke="black" stroke-width="1" points="1293,1427
1293,1426 
1297,1426 
1306,1419 
1311,1411 
1311,1408 
1312,1398 
1308,1389 
1306,1387 
1304,1385 
1296,1380 
1293,1380 
1283,1379 
1274,1383 
1272,1385 
1270,1387 
1265,1395 
1265,1398 
1264,1408 
1268,1417 
1270,1419 
1272,1421 
1280,1426 
1283,1426 
1293,1427 
"/>
<polyline fill="none" stroke="black" stroke-width="1" points="1294,1447
1282,1447 
1265,1441 
1262,1438 
1253,1429 
1248,1421 
1245,1410 
1244,1397 
1250,1380 
1253,1377 
1262,1368 
1270,1363 
1281,1360 
1294,1359 
1311,1365 
1314,1368 
1323,1377 
1328,1385 
1331,1391 
1377,1391 
1429,1339 
1453,1315 
1453,1161 
1451,1161 
1445,1167 
1427,1183 
1423,1183 
1378,1185 
1378,1201 
1272,1201 
1272,1143 
1378,1143 
1378,1160 
1419,1160 
1443,1136 
1453,1126 
1453,757 
1462,747 
1494,715 
1500,699 
1500,668 
1616,552 
1682,551 
1732,567 
1736,574 
1736,581 
1482,858 
1477,860 
1477,1320 
1474,1328 
1385,1414 
1381,1414 
1330,1416 
1325,1427 
1323,1429 
1314,1438 
1306,1443 
1295,1446 
1294,1447 
"/>
<polyline fill="none" stroke="black" stroke-width="1" points="1079,1427
1079,1426 
1083,1426 
1092,1419 
1097,1411 
1097,1408 
1098,1398 
1094,1389 
1092,1387 
1090,1385 
1082,1380 
1079,1380 
1069,1379 
1060,1383 
1058,1385 
1056,1387 
1051,1395 
1051,1398 
1050,1408 
1054,1417 
1056,1419 
1058,1421 
1066,1426 
1069,1426 
1079,1427 
"/>
<polyline fill="none" stroke="black" stroke-width="1" points="999,1385
819,1385 
811,1382 
807,1375 
807,1368 
928,1245 
933,1230 
933,791 
931,787 
931,780 
937,774 
994,773 
1000,779 
1002,791 
1002,831 
1007,840 
1014,845 
1024,848 
1101,848 
1105,846 
1112,842 
1118,834 
1123,827 
1125,827 
1134,826 
1150,842 
1151,852 
1122,883 
1122,934 
1144,956 
1146,968 
1146,1276 
1143,1284 
1109,1317 
1104,1324 
1102,1324 
1100,1326 
1095,1331 
1089,1334 
1086,1334 
1052,1337 
1048,1339 
1033,1346 
1022,1359 
1016,1365 
1008,1381 
1002,1384 
999,1384 
999,1385 
"/>
<polyline fill="none" stroke="black" stroke-width="1" points="1069,1734
1079,1734 
1088,1730 
1090,1728 
1092,1726 
1097,1718 
1097,1715 
1098,1705 
1094,1696 
1092,1694 
1090,1692 
1082,1687 
1079,1687 
1069,1686 
1060,1690 
1058,1692 
1056,1694 
1051,1702 
1051,1705 
1050,1715 
1054,1724 
1056,1726 
1058,1728 
1066,1733 
1069,1733 
1069,1734 
"/>
<polyline fill="none" stroke="black" stroke-width="1" points="1068,1754
1068,1753 
1063,1753 
1050,1747 
1048,1745 
1039,1736 
1034,1728 
1031,1717 
1030,1704 
1036,1687 
1039,1684 
1048,1675 
1056,1670 
1067,1667 
1080,1666 
1097,1672 
1100,1675 
1109,1684 
1114,1692 
1117,1703 
1118,1716 
1112,1733 
1109,1736 
1100,1745 
1092,1750 
1081,1753 
1068,1754 
"/>
<polyline fill="none" stroke="black" stroke-width="1" points="1282,1754
1282,1753 
1277,1753 
1264,1747 
1262,1745 
1253,1736 
1248,1728 
1245,1717 
1244,1704 
1250,1687 
1253,1684 
1262,1675 
1270,1670 
1281,1667 
1294,1666 
1311,1672 
1314,1675 
1323,1684 
1328,1692 
1331,1703 
1332,1716 
1326,1733 
1323,1736 
1314,1745 
1306,1750 
1295,1753 
1282,1754 
"/>
<polyline fill="none" stroke="black" stroke-width="1" points="1283,1734
1293,1734 
1302,1730 
1304,1728 
1306,1726 
1311,1718 
1311,1715 
1312,1705 
1308,1696 
1306,1694 
1304,1692 
1296,1687 
1293,1687 
1283,1686 
1274,1690 
1272,1692 
1270,1694 
1265,1702 
1265,1705 
1264,1715 
1268,1724 
1270,1726 
1272,1728 
1280,1733 
1283,1733 
1283,1734 
"/>
<polyline fill="none" stroke="black" stroke-width="1" points="2127,1771
1841,1771 
1841,1485 
2127,1485 
2127,1771 
"/>
<polyline fill="none" stroke="black" stroke-width="1" points="2332,645
2323,645 
2169,530 
2163,530 
2155,527 
2151,520 
2151,490 
2157,484 
2207,483 
2224,497 
2246,506 
2267,506 
2291,495 
2301,485 
2304,482 
2308,475 
2315,456 
2315,434 
2313,430 
2310,422 
2304,410 
2294,402 
2288,396 
2286,396 
2280,393 
2267,388 
2241,388 
2237,390 
2218,399 
2216,401 
2206,402 
2200,396 
2197,276 
2191,265 
2160,236 
2158,236 
2150,232 
1872,232 
1864,229 
1851,216 
1837,211 
1823,211 
1815,208 
1796,189 
1794,189 
1788,186 
1772,180 
1743,180 
1733,185 
1720,191 
1703,210 
1694,233 
1694,262 
1697,268 
1705,285 
1724,302 
1748,312 
1773,312 
1803,299 
1809,299 
1815,305 
1817,317 
1817,398 
1814,406 
1807,410 
1804,410 
1769,411 
1761,408 
1757,401 
1749,393 
1747,393 
1741,390 
1618,390 
1610,387 
1606,380 
1606,344 
1603,338 
1599,330 
1489,220 
1453,184 
1448,179 
1436,167 
1426,162 
1423,156 
1423,149 
1432,140 
2133,139 
2195,201 
2197,213 
2197,225 
2199,229 
2207,246 
2224,261 
2246,270 
2267,270 
2291,259 
2301,249 
2306,244 
2315,220 
2315,198 
2313,194 
2305,174 
2295,166 
2286,155 
2286,147 
2306,125 
2311,113 
2315,102 
2315,80 
2313,76 
2305,56 
2295,48 
2285,36 
2285,28 
2291,22 
2332,21 
2338,27 
2340,39 
2340,633 
2337,641 
2332,645 
"/>
<polyline fill="none" stroke="black" stroke-width="1" points="2261,483
2251,483 
2237,478 
2234,475 
2228,469 
2223,461 
2221,459 
2163,459 
2155,456 
2151,449 
2151,293 
2141,283 
2138,280 
1853,280 
1845,277 
1826,258 
1801,258 
1801,260 
1799,264 
1791,276 
1778,285 
1776,285 
1772,287 
1760,289 
1754,289 
1738,283 
1727,273 
1721,264 
1721,262 
1719,258 
1717,246 
1717,240 
1723,224 
1733,213 
1742,207 
1744,207 
1748,205 
1760,203 
1766,203 
1782,209 
1793,219 
1799,228 
1799,230 
1802,234 
1835,234 
1859,256 
2147,256 
2164,273 
2174,285 
2174,289 
2176,435 
2222,435 
2227,426 
2234,419 
2242,414 
2250,412 
2261,411 
2275,416 
2278,419 
2284,425 
2289,433 
2291,441 
2292,452 
2287,466 
2284,469 
2278,475 
2270,480 
2262,482 
2261,483 
"/>
<polyline fill="none" stroke="black" stroke-width="1" points="2261,471
2261,470 
2265,470 
2274,463 
2279,455 
2279,452 
2280,442 
2276,433 
2274,431 
2272,429 
2264,424 
2261,424 
2251,423 
2242,427 
2240,429 
2238,431 
2233,439 
2233,442 
2232,452 
2236,461 
2238,463 
2240,465 
2248,470 
2251,470 
2261,471 
"/>
<polyline fill="none" stroke="black" stroke-width="1" points="2261,353
2261,352 
2265,352 
2274,345 
2279,337 
2279,334 
2280,324 
2276,315 
2274,313 
2272,311 
2264,306 
2261,306 
2251,305 
2242,309 
2240,311 
2238,313 
2233,321 
2233,324 
2232,334 
2236,343 
2238,345 
2240,347 
2248,352 
2251,352 
2261,353 
"/>
<polyline fill="none" stroke="black" stroke-width="1" points="2261,247
2251,247 
2237,242 
2234,239 
2228,233 
2223,225 
2221,217 
2220,206 
2223,194 
2143,116 
1421,116 
1398,139 
1386,141 
1378,141 
1378,167 
1292,167 
1292,141 
1219,141 
1210,150 
1200,151 
1194,147 
1083,147 
1080,150 
1068,152 
1051,152 
1043,149 
1015,121 
211,121 
138,196 
140,200 
142,212 
142,216 
137,230 
134,233 
128,239 
120,244 
112,246 
101,247 
87,242 
84,239 
78,233 
73,225 
71,217 
70,206 
75,192 
78,189 
84,183 
92,178 
100,176 
111,175 
122,178 
202,98 
1024,97 
1057,128 
1079,128 
1086,133 
1195,133 
1209,118 
1292,116 
1292,91 
1378,91 
1378,117 
1388,117 
1412,93 
2153,92 
2241,178 
2243,178 
2249,176 
2251,176 
2261,175 
2275,180 
2278,183 
2284,189 
2289,197 
2291,205 
2292,216 
2287,230 
2284,233 
2278,239 
2270,244 
2262,246 
2261,247 
"/>
<polyline fill="none" stroke="black" stroke-width="1" points="2261,235
2261,234 
2265,234 
2274,227 
2279,219 
2279,216 
2280,206 
2276,197 
2274,195 
2272,193 
2264,188 
2261,188 
2251,187 
2242,191 
2240,193 
2238,195 
2233,203 
2233,206 
2232,216 
2236,225 
2238,227 
2240,229 
2248,234 
2251,234 
2261,235 
"/>
<polyline fill="none" stroke="black" stroke-width="1" points="2261,129
2251,129 
2237,124 
2234,121 
2228,115 
2224,111 
2215,106 
2177,68 
1228,68 
1217,81 
1207,89 
1201,91 
1198,91 
1177,93 
1177,111 
1091,111 
1091,92 
1071,92 
1059,88 
1044,73 
169,73 
164,77 
152,92 
140,104 
140,106 
131,119 
118,127 
116,127 
106,129 
101,129 
87,124 
84,121 
78,115 
73,107 
71,99 
70,88 
75,74 
78,71 
84,65 
92,60 
100,58 
111,57 
125,62 
128,63 
141,45 
159,35 
1058,35 
1068,42 
1079,54 
1085,54 
1085,45 
1091,37 
1091,35 
1177,35 
1177,54 
1191,54 
1206,37 
1213,32 
1219,30 
2190,30 
2200,37 
2230,67 
2232,67 
2234,65 
2242,60 
2250,58 
2261,57 
2275,62 
2278,65 
2284,71 
2289,79 
2291,87 
2292,98 
2287,112 
2284,115 
2278,121 
2270,126 
2262,128 
2261,129 
"/>
<polyline fill="none" stroke="black" stroke-width="1" points="2261,117
2261,116 
2265,116 
2274,109 
2279,101 
2279,98 
2280,88 
2276,79 
2274,77 
2272,75 
2264,70 
2261,70 
2251,69 
2242,73 
2240,75 
2238,77 
2233,85 
2233,88 
2232,98 
2236,107 
2238,109 
2240,111 
2248,116 
2251,116 
2261,117 
"/>
<polyline fill="none" stroke="black" stroke-width="1" points="1755,270
1765,270 
1774,266 
1776,264 
1778,262 
1783,254 
1783,251 
1784,241 
1780,232 
1778,230 
1776,228 
1768,223 
1765,223 
1755,222 
1746,226 
1744,228 
1742,230 
1737,238 
1737,241 
1736,251 
1740,260 
1742,262 
1744,264 
1752,269 
1755,269 
1755,270 
"/>
<polyline fill="none" stroke="black" stroke-width="1" points="1635,223
1635,222 
1639,222 
1648,215 
1653,207 
1653,204 
1654,194 
1650,185 
1648,183 
1646,181 
1638,176 
1635,176 
1625,175 
1616,179 
1614,181 
1612,183 
1607,191 
1607,194 
1606,204 
1610,213 
1612,215 
1614,217 
1622,222 
1625,222 
1635,223 
"/>
<polyline fill="none" stroke="black" stroke-width="1" points="1554,684
1564,684 
1573,680 
1575,678 
1577,676 
1582,668 
1582,665 
1583,655 
1579,646 
1577,644 
1575,642 
1567,637 
1564,637 
1554,636 
1545,640 
1543,642 
1541,644 
1536,652 
1536,655 
1535,665 
1539,674 
1541,676 
1543,678 
1551,683 
1554,683 
1554,684 
"/>
<polyline fill="none" stroke="black" stroke-width="1" points="1044,608
1056,608 
1056,556 
1049,556 
1044,563 
1044,608 
"/>
<polyline fill="none" stroke="black" stroke-width="1" points="808,613
808,612 
812,612 
821,605 
826,597 
826,594 
827,584 
823,575 
821,573 
819,571 
811,566 
808,566 
798,565 
789,569 
787,571 
785,573 
780,581 
780,584 
779,594 
783,603 
785,605 
787,607 
795,612 
798,612 
808,613 
"/>
<polyline fill="none" stroke="black" stroke-width="1" points="793,750
793,664 
819,664 
819,634 
814,634 
804,636 
797,636 
780,630 
767,619 
760,607 
758,601 
756,589 
756,583 
762,566 
773,553 
785,546 
791,544 
803,542 
809,542 
826,548 
839,559 
846,571 
848,577 
850,589 
850,595 
844,612 
842,616 
844,664 
869,664 
869,750 
793,750 
"/>
<polyline fill="none" stroke="black" stroke-width="1" points="198,1767
35,1767 
27,1764 
23,1757 
23,28 
29,22 
70,21 
76,27 
77,37 
60,54 
55,59 
55,61 
53,65 
47,81 
47,107 
49,111 
57,128 
75,146 
76,156 
60,172 
56,176 
56,178 
53,183 
47,199 
47,225 
49,229 
58,247 
74,261 
96,270 
118,270 
124,267 
142,259 
147,252 
149,252 
157,242 
166,220 
166,202 
182,185 
224,145 
1004,145 
1033,171 
1046,176 
1060,176 
1066,182 
1068,194 
1068,252 
1073,261 
1079,265 
1089,270 
1092,276 
1092,279 
1093,311 
1092,385 
1097,395 
1142,440 
1144,440 
1148,442 
1156,445 
1275,445 
1281,442 
1289,438 
1321,404 
1326,390 
1326,332 
1332,326 
1387,323 
1396,317 
1401,304 
1401,257 
1407,251 
1417,250 
1533,366 
1535,378 
1535,438 
1532,446 
1507,471 
1502,476 
1462,516 
1457,521 
1417,561 
1412,566 
1387,591 
1381,608 
1381,610 
1375,616 
1365,617 
1354,608 
1334,600 
1308,600 
1302,603 
1296,605 
1290,605 
1284,599 
1281,552 
1279,548 
1275,541 
1218,486 
1206,482 
1138,482 
1130,479 
1043,392 
1041,392 
1037,390 
1031,388 
1028,388 
1020,385 
1016,378 
1016,362 
1014,358 
1010,351 
1006,347 
1000,344 
861,343 
854,347 
848,355 
846,363 
846,487 
851,496 
858,501 
868,504 
996,504 
1000,502 
1007,498 
1013,490 
1018,483 
1020,483 
1032,482 
1069,519 
1072,522 
1077,527 
1088,540 
1088,548 
1082,554 
1080,556 
1080,683 
1084,683 
1090,689 
1092,701 
1089,709 
1084,714 
1071,727 
1059,729 
1057,729 
1049,726 
1026,701 
1026,683 
1032,677 
1042,676 
1050,682 
1053,682 
1056,683 
1056,632 
1044,632 
1044,642 
1041,650 
1034,654 
1027,654 
1014,643 
1006,641 
919,641 
910,646 
905,653 
905,790 
908,793 
910,805 
910,1226 
907,1234 
762,1378 
762,1393 
780,1409 
1030,1409 
1030,1397 
1036,1380 
1039,1377 
1048,1368 
1056,1363 
1067,1360 
1080,1359 
1096,1364 
1169,1289 
1169,944 
1166,944 
1145,921 
1145,893 
1168,872 
1196,872 
1217,895 
1217,923 
1194,944 
1191,1302 
1112,1381 
1116,1391 
1118,1403 
1118,1409 
1112,1426 
1109,1429 
1100,1438 
1092,1443 
1081,1446 
1068,1447 
1051,1441 
1048,1438 
1041,1433 
774,1433 
766,1430 
738,1400 
738,1369 
843,1264 
886,1221 
886,794 
891,787 
891,652 
887,648 
884,639 
869,624 
868,614 
870,610 
874,600 
874,574 
861,546 
856,541 
842,527 
840,527 
836,525 
817,518 
786,518 
776,522 
759,530 
751,540 
742,549 
742,551 
738,559 
732,574 
732,605 
734,609 
739,621 
744,631 
767,653 
769,665 
769,755 
774,764 
782,770 
792,773 
856,773 
862,779 
863,789 
860,1213 
719,1354 
714,1368 
714,1405 
716,1409 
721,1418 
743,1440 
753,1450 
769,1456 
1030,1456 
1037,1461 
1062,1471 
1088,1471 
1092,1469 
1115,1459 
1132,1440 
1142,1414 
1142,1386 
1212,1314 
1217,1301 
1217,957 
1241,931 
1241,882 
1234,877 
1234,875 
1212,853 
1211,843 
1235,818 
1245,817 
1278,848 
1326,848 
1344,828 
1365,809 
1373,809 
1379,815 
1381,827 
1381,998 
1378,1006 
1371,1010 
1368,1010 
1295,1011 
1273,1010 
1259,1013 
1250,1024 
1250,1026 
1249,1099 
1254,1108 
1258,1112 
1259,1122 
1251,1132 
1249,1138 
1249,1208 
1254,1217 
1261,1222 
1271,1225 
1382,1225 
1386,1223 
1393,1219 
1403,1209 
1421,1208 
1427,1214 
1429,1226 
1429,1300 
1426,1308 
1365,1367 
1361,1367 
1354,1368 
1346,1365 
1325,1344 
1323,1344 
1319,1342 
1301,1335 
1271,1335 
1267,1337 
1247,1346 
1229,1366 
1220,1389 
1220,1419 
1225,1431 
1231,1444 
1244,1455 
1250,1461 
1252,1461 
1256,1463 
1276,1471 
1302,1471 
1308,1468 
1328,1459 
1338,1449 
1350,1439 
1390,1439 
1396,1436 
1404,1432 
1495,1339 
1500,1324 
1500,1264 
1506,1258 
1516,1257 
1767,1483 
1769,1495 
1769,1526 
1766,1534 
1759,1538 
1457,1538 
550,1533 
545,1526 
545,1478 
543,1474 
539,1467 
527,1461 
226,1461 
222,1463 
214,1470 
211,1479 
211,1754 
208,1762 
201,1766 
198,1766 
198,1767 
"/>
<polyline fill="none" stroke="black" stroke-width="1" points="2327,1771
2163,1771 
2155,1768 
2151,1761 
2151,1478 
2149,1474 
2145,1467 
2136,1462 
2119,1459 
2114,1452 
2114,1427 
1816,1427 
1816,1572 
1817,1758 
1814,1766 
1807,1770 
1804,1770 
1353,1771 
1345,1768 
1341,1761 
1341,1754 
1346,1747 
1356,1721 
1356,1695 
1353,1689 
1350,1683 
1314,1647 
1260,1647 
1252,1651 
1245,1656 
1235,1666 
1229,1672 
1229,1674 
1227,1678 
1225,1684 
1220,1695 
1220,1726 
1229,1748 
1234,1755 
1234,1763 
1228,1769 
1216,1771 
1139,1771 
1131,1768 
1127,1761 
1127,1754 
1132,1747 
1142,1721 
1142,1695 
1139,1689 
1130,1669 
1111,1652 
1099,1647 
1046,1647 
1038,1651 
1031,1656 
1015,1674 
1015,1676 
1011,1684 
1006,1696 
1006,1726 
1009,1732 
1020,1758 
1020,1763 
1014,1769 
1002,1771 
235,1771 
235,1485 
521,1485 
521,1560 
1792,1560 
1792,1426 
1790,1426 
1548,1184 
1547,891 
1742,649 
2177,648 
2193,656 
2195,656 
2202,661 
2284,701 
2337,729 
2339,735 
2339,737 
2340,1758 
2337,1766 
2330,1770 
2327,1770 
2327,1771 
"/>
</svg>
