<?xml version="1.0" standalone="no"?>
<!DOCTYPE svg PUBLIC "-//W3C//DTD SVG 1.1//EN"
  "http://www.w3.org/Graphics/SVG/1.1/DTD/svg11.dtd">
<svg width="48.428mm" height="37.104mm" version="1.1"
   viewBox="0 0 2288 1753"
   xmlns="http://www.w3.org/2000/svg">
<polyline fill="none" stroke="black" stroke-width="1" points="2203,113
2213,113 
2222,109 
2224,107 
2226,105 
2231,97 
2231,94 
2232,84 
2228,75 
2226,73 
2224,71 
2216,66 
2213,66 
2203,65 
2194,69 
2192,71 
2190,73 
2185,81 
2185,84 
2184,94 
2188,103 
2190,105 
2192,107 
2200,112 
2203,112 
2203,113 
"/>
<polyline fill="none" stroke="black" stroke-width="1" points="2203,231
2213,231 
2222,227 
2224,225 
2226,223 
2231,215 
2231,212 
2232,202 
2228,193 
2226,191 
2224,189 
2216,184 
2213,184 
2203,183 
2194,187 
2192,189 
2190,191 
2185,199 
2185,202 
2184,212 
2188,221 
2190,223 
2192,225 
2200,230 
2203,230 
2203,231 
"/>
<polyline fill="none" stroke="black" stroke-width="1" points="2203,349
2213,349 
2222,345 
2224,343 
2226,341 
2231,333 
2231,330 
2232,320 
2228,311 
2226,309 
2224,307 
2216,302 
2213,302 
2203,301 
2194,305 
2192,307 
2190,309 
2185,317 
2185,320 
2184,330 
2188,339 
2190,341 
2192,343 
2200,348 
2203,348 
2203,349 
"/>
<polyline fill="none" stroke="black" stroke-width="1" points="2203,467
2213,467 
2222,463 
2224,461 
2226,459 
2231,451 
2231,448 
2232,438 
2228,429 
2226,427 
2224,425 
2216,420 
2213,420 
2203,419 
2194,423 
2192,425 
2190,427 
2185,435 
2185,438 
2184,448 
2188,457 
2190,459 
2192,461 
2200,466 
2203,466 
2203,467 
"/>
<polyline fill="none" stroke="black" stroke-width="1" points="2203,479
2203,478 
2198,478 
2187,472 
2180,465 
2175,457 
2173,455 
2115,455 
2107,452 
2103,445 
2103,289 
2093,279 
2090,276 
1805,276 
1797,273 
1778,254 
1753,254 
1753,256 
1751,260 
1743,272 
1730,281 
1728,281 
1724,283 
1712,285 
1706,285 
1690,279 
1679,269 
1673,260 
1673,258 
1671,254 
1669,242 
1669,236 
1675,220 
1685,209 
1694,203 
1696,203 
1700,201 
1712,199 
1718,199 
1734,205 
1745,215 
1751,224 
1751,226 
1754,230 
1787,230 
1811,252 
2099,252 
2116,269 
2126,281 
2126,285 
2128,431 
2174,431 
2179,422 
2186,415 
2194,410 
2202,408 
2213,407 
2227,412 
2230,415 
2236,421 
2241,429 
2243,437 
2244,448 
2239,462 
2236,465 
2230,471 
2222,476 
2214,478 
2203,479 
"/>
<polyline fill="none" stroke="black" stroke-width="1" points="1717,266
1717,265 
1721,265 
1730,258 
1735,250 
1735,247 
1736,237 
1732,228 
1730,226 
1728,224 
1720,219 
1717,219 
1707,218 
1698,222 
1696,224 
1694,226 
1689,234 
1689,237 
1688,247 
1692,256 
1694,258 
1696,260 
1704,265 
1707,265 
1717,266 
"/>
<polyline fill="none" stroke="black" stroke-width="1" points="1577,219
1587,219 
1596,215 
1598,213 
1600,211 
1605,203 
1605,200 
1606,190 
1602,181 
1600,179 
1598,177 
1590,172 
1587,172 
1577,171 
1568,175 
1566,177 
1564,179 
1559,187 
1559,190 
1558,200 
1562,209 
1564,211 
1566,213 
1574,218 
1577,218 
1577,219 
"/>
<polyline fill="none" stroke="black" stroke-width="1" points="1152,370
1128,370 
1128,261 
1106,241 
1043,241 
1043,165 
1129,165 
1129,230 
1150,251 
1152,263 
1152,370 
"/>
<polyline fill="none" stroke="black" stroke-width="1" points="1113,417
1113,416 
1108,416 
1069,377 
1068,266 
1092,266 
1092,368 
1119,393 
1214,393 
1227,380 
1231,376 
1231,299 
1244,284 
1244,222 
1330,222 
1330,298 
1264,298 
1255,309 
1255,381 
1252,389 
1230,411 
1225,416 
1113,417 
"/>
<polyline fill="none" stroke="black" stroke-width="1" points="855,266
855,265 
859,265 
868,258 
873,250 
873,247 
874,237 
870,228 
868,226 
866,224 
858,219 
855,219 
845,218 
836,222 
834,224 
832,226 
827,234 
827,237 
826,247 
830,256 
832,258 
834,260 
842,265 
845,265 
855,266 
"/>
<polyline fill="none" stroke="black" stroke-width="1" points="725,266
725,265 
729,265 
738,258 
743,250 
743,247 
744,237 
740,228 
738,226 
736,224 
728,219 
725,219 
715,218 
706,222 
704,224 
702,226 
697,234 
697,237 
696,247 
700,256 
702,258 
704,260 
712,265 
715,265 
725,266 
"/>
<polyline fill="none" stroke="black" stroke-width="1" points="585,219
595,219 
604,215 
606,213 
608,211 
613,203 
613,200 
614,190 
610,181 
608,179 
606,177 
598,172 
595,172 
585,171 
576,175 
574,177 
572,179 
567,187 
567,190 
566,200 
570,209 
572,211 
574,213 
582,218 
585,218 
585,219 
"/>
<polyline fill="none" stroke="black" stroke-width="1" points="473,586
187,586 
187,300 
473,300 
473,586 
"/>
<polyline fill="none" stroke="black" stroke-width="1" points="725,620
725,619 
729,619 
738,612 
743,604 
743,601 
744,591 
740,582 
738,580 
736,578 
728,573 
725,573 
715,572 
706,576 
704,578 
702,580 
697,588 
697,591 
696,601 
700,610 
702,612 
704,614 
712,619 
715,619 
725,620 
"/>
<polyline fill="none" stroke="black" stroke-width="1" points="821,746
745,746 
745,660 
771,660 
771,656 
769,654 
751,631 
739,639 
737,639 
733,641 
731,641 
721,643 
714,643 
697,637 
684,626 
677,614 
675,608 
673,596 
673,590 
679,573 
690,560 
702,553 
708,551 
720,549 
726,549 
743,555 
756,566 
763,578 
765,584 
767,596 
767,602 
765,610 
767,612 
794,649 
794,653 
796,660 
821,660 
821,746 
"/>
<polyline fill="none" stroke="black" stroke-width="1" points="1018,808
1018,807 
1022,807 
1031,800 
1036,792 
1036,789 
1037,779 
1033,770 
1031,768 
1029,766 
1021,761 
1018,761 
1008,760 
999,764 
997,766 
995,768 
990,776 
990,779 
989,789 
993,798 
995,800 
997,802 
1005,807 
1008,807 
1018,808 
"/>
<polyline fill="none" stroke="black" stroke-width="1" points="1049,820
977,820 
977,764 
955,744 
955,746 
879,746 
879,660 
955,660 
955,710 
995,748 
1032,748 
1049,731 
1068,712 
1068,564 
1092,564 
1092,717 
1089,725 
1049,765 
1049,820 
"/>
<polyline fill="none" stroke="black" stroke-width="1" points="1138,808
1138,807 
1142,807 
1151,800 
1156,792 
1156,789 
1157,779 
1153,770 
1151,768 
1149,766 
1141,761 
1138,761 
1128,760 
1119,764 
1117,766 
1115,768 
1110,776 
1110,779 
1109,789 
1113,798 
1115,800 
1117,802 
1125,807 
1128,807 
1138,808 
"/>
<polyline fill="none" stroke="black" stroke-width="1" points="1148,820
1118,820 
1097,797 
1097,769 
1120,748 
1128,748 
1128,564 
1152,564 
1152,753 
1169,770 
1169,799 
1148,820 
"/>
<polyline fill="none" stroke="black" stroke-width="1" points="1138,928
1138,927 
1142,927 
1151,920 
1156,912 
1156,909 
1157,899 
1153,890 
1151,888 
1149,886 
1141,881 
1138,881 
1128,880 
1119,884 
1117,886 
1115,888 
1110,896 
1110,899 
1109,909 
1113,918 
1115,920 
1117,922 
1125,927 
1128,927 
1138,928 
"/>
<polyline fill="none" stroke="black" stroke-width="1" points="1018,928
1018,927 
1022,927 
1031,920 
1036,912 
1036,909 
1037,899 
1033,890 
1031,888 
1029,886 
1021,881 
1018,881 
1008,880 
999,884 
997,886 
995,888 
990,896 
990,899 
989,909 
993,918 
995,920 
997,922 
1005,927 
1008,927 
1018,928 
"/>
<polyline fill="none" stroke="black" stroke-width="1" points="1258,928
1258,927 
1262,927 
1271,920 
1276,912 
1276,909 
1277,899 
1273,890 
1271,888 
1269,886 
1261,881 
1258,881 
1248,880 
1239,884 
1237,886 
1235,888 
1230,896 
1230,899 
1229,909 
1233,918 
1235,920 
1237,922 
1245,927 
1248,927 
1258,928 
"/>
<polyline fill="none" stroke="black" stroke-width="1" points="1268,820
1238,820 
1217,797 
1217,769 
1240,748 
1268,748 
1271,749 
1357,661 
1357,603 
1466,494 
1511,449 
1511,353 
1357,201 
1223,201 
1223,206 
1212,219 
1212,370 
1188,370 
1188,209 
1206,191 
1217,188 
1360,185 
1362,183 
1372,182 
1533,343 
1535,355 
1535,454 
1532,462 
1381,612 
1381,667 
1378,675 
1287,766 
1287,768 
1289,770 
1289,799 
1268,820 
"/>
<polyline fill="none" stroke="black" stroke-width="1" points="1258,808
1258,807 
1262,807 
1271,800 
1276,792 
1276,789 
1277,779 
1273,770 
1271,768 
1269,766 
1261,761 
1258,761 
1248,760 
1239,764 
1237,766 
1235,768 
1230,776 
1230,779 
1229,789 
1233,798 
1235,800 
1237,802 
1245,807 
1248,807 
1258,808 
"/>
<polyline fill="none" stroke="black" stroke-width="1" points="1270,691
1270,690 
1265,690 
1261,688 
1252,682 
1244,672 
1242,668 
1240,668 
1232,665 
1213,646 
1211,668 
1188,668 
1188,565 
1146,526 
1071,526 
1063,523 
971,431 
944,431 
944,476 
822,476 
822,362 
944,362 
944,407 
980,407 
1077,502 
1156,502 
1210,555 
1212,567 
1212,612 
1243,641 
1254,628 
1267,622 
1270,622 
1280,621 
1293,626 
1304,637 
1307,643 
1309,649 
1309,651 
1310,661 
1305,674 
1294,685 
1288,688 
1282,690 
1280,690 
1270,691 
"/>
<polyline fill="none" stroke="black" stroke-width="1" points="1280,680
1280,679 
1284,679 
1293,672 
1298,664 
1298,661 
1299,651 
1295,642 
1293,640 
1291,638 
1283,633 
1280,633 
1270,632 
1261,636 
1259,638 
1257,640 
1252,648 
1252,651 
1251,661 
1255,670 
1257,672 
1259,674 
1267,679 
1270,679 
1280,680 
"/>
<polyline fill="none" stroke="black" stroke-width="1" points="1516,680
1516,679 
1520,679 
1529,672 
1534,664 
1534,661 
1535,651 
1531,642 
1529,640 
1527,638 
1519,633 
1516,633 
1506,632 
1497,636 
1495,638 
1493,640 
1488,648 
1488,651 
1487,661 
1491,670 
1493,672 
1495,674 
1503,679 
1506,679 
1516,680 
"/>
<polyline fill="none" stroke="black" stroke-width="1" points="1330,1088
1224,1088 
1224,1030 
1330,1030 
1330,1047 
1339,1047 
1357,1027 
1357,733 
1393,697 
1405,685 
1405,644 
1566,481 
1566,410 
1688,410 
1688,431 
1712,431 
1793,428 
1793,300 
2079,300 
2079,586 
1793,586 
1793,467 
1781,467 
1781,551 
1778,559 
1771,563 
1758,566 
1754,566 
1701,532 
1701,530 
1699,491 
1688,491 
1688,524 
1566,524 
1566,517 
1564,517 
1429,654 
1429,690 
1426,698 
1381,742 
1381,1033 
1378,1041 
1347,1070 
1343,1070 
1330,1072 
1330,1088 
"/>
<polyline fill="none" stroke="black" stroke-width="1" points="1235,1423
1245,1423 
1254,1419 
1256,1417 
1258,1415 
1263,1407 
1263,1404 
1264,1394 
1260,1385 
1258,1383 
1256,1381 
1248,1376 
1245,1376 
1235,1375 
1226,1379 
1224,1381 
1222,1383 
1217,1391 
1217,1394 
1216,1404 
1220,1413 
1222,1415 
1224,1417 
1232,1422 
1235,1422 
1235,1423 
"/>
<polyline fill="none" stroke="black" stroke-width="1" points="1234,1443
1234,1442 
1229,1442 
1216,1436 
1214,1434 
1205,1425 
1200,1417 
1197,1406 
1196,1393 
1202,1376 
1205,1373 
1214,1364 
1222,1359 
1233,1356 
1246,1355 
1263,1361 
1266,1364 
1275,1373 
1280,1381 
1283,1387 
1329,1387 
1381,1335 
1405,1311 
1405,1166 
1403,1166 
1386,1183 
1378,1186 
1375,1186 
1330,1188 
1330,1197 
1224,1197 
1224,1139 
1330,1139 
1330,1149 
1368,1149 
1386,1131 
1405,1112 
1405,753 
1414,743 
1446,711 
1452,695 
1452,664 
1568,548 
1634,547 
1684,563 
1688,570 
1688,577 
1434,854 
1429,856 
1429,1114 
1432,1117 
1435,1125 
1435,1133 
1429,1144 
1429,1316 
1426,1324 
1337,1410 
1333,1410 
1282,1412 
1277,1423 
1275,1425 
1266,1434 
1258,1439 
1247,1442 
1234,1443 
"/>
<polyline fill="none" stroke="black" stroke-width="1" points="1021,1423
1031,1423 
1040,1419 
1042,1417 
1044,1415 
1049,1407 
1049,1404 
1050,1394 
1046,1385 
1044,1383 
1042,1381 
1034,1376 
1031,1376 
1021,1375 
1012,1379 
1010,1381 
1008,1383 
1003,1391 
1003,1394 
1002,1404 
1006,1413 
1008,1415 
1010,1417 
1018,1422 
1021,1422 
1021,1423 
"/>
<polyline fill="none" stroke="black" stroke-width="1" points="1020,1443
1020,1442 
1015,1442 
1002,1436 
1000,1434 
993,1429 
726,1429 
718,1426 
690,1396 
690,1365 
795,1260 
838,1217 
838,790 
843,783 
843,615 
839,611 
838,556 
891,503 
995,502 
1030,536 
1032,548 
1032,668 
1008,668 
1008,546 
995,535 
990,530 
984,526 
900,526 
862,566 
862,605 
859,613 
857,615 
857,786 
860,789 
862,801 
862,1222 
859,1230 
714,1374 
714,1389 
732,1405 
982,1405 
982,1393 
988,1376 
991,1373 
1000,1364 
1008,1359 
1019,1356 
1032,1355 
1048,1360 
1121,1285 
1121,940 
1118,940 
1097,917 
1097,889 
1120,868 
1148,868 
1169,891 
1169,919 
1146,940 
1143,1298 
1064,1377 
1068,1387 
1070,1399 
1070,1405 
1064,1422 
1061,1425 
1052,1434 
1044,1439 
1033,1442 
1020,1443 
"/>
<polyline fill="none" stroke="black" stroke-width="1" points="771,1381
771,1380 
766,1380 
760,1374 
759,1364 
880,1241 
885,1226 
885,787 
883,783 
883,776 
889,770 
946,769 
952,775 
954,787 
954,827 
959,836 
966,841 
976,844 
1053,844 
1057,842 
1064,838 
1070,830 
1075,823 
1077,823 
1086,822 
1102,838 
1103,848 
1074,879 
1074,930 
1096,952 
1098,964 
1098,1272 
1095,1280 
1061,1313 
1056,1320 
1054,1320 
1052,1322 
1047,1327 
1041,1330 
1038,1330 
1004,1333 
1000,1335 
985,1342 
974,1355 
968,1361 
960,1377 
954,1380 
951,1380 
771,1381 
"/>
<polyline fill="none" stroke="black" stroke-width="1" points="723,1584
687,1584 
687,1564 
723,1564 
723,1584 
"/>
<polyline fill="none" stroke="black" stroke-width="1" points="723,1624
687,1624 
687,1604 
723,1604 
723,1624 
"/>
<polyline fill="none" stroke="black" stroke-width="1" points="674,1664
654,1664 
654,1564 
674,1564 
674,1664 
"/>
<polyline fill="none" stroke="black" stroke-width="1" points="604,1666
589,1666 
575,1659 
567,1649 
563,1639 
563,1637 
562,1631 
582,1631 
582,1634 
586,1642 
593,1646 
603,1646 
605,1644 
609,1640 
611,1632 
611,1630 
614,1630 
616,1628 
624,1622 
628,1618 
630,1624 
631,1639 
625,1652 
623,1654 
620,1657 
613,1662 
605,1665 
604,1666 
"/>
<polyline fill="none" stroke="black" stroke-width="1" points="598,1624
596,1624 
596,1604 
604,1601 
604,1599 
606,1597 
606,1594 
607,1592 
603,1584 
597,1582 
592,1582 
586,1588 
586,1590 
584,1593 
565,1593 
565,1587 
572,1573 
583,1565 
585,1565 
589,1563 
591,1563 
601,1562 
613,1567 
615,1569 
620,1574 
623,1579 
626,1588 
626,1601 
619,1613 
616,1616 
608,1621 
598,1624 
"/>
<polyline fill="none" stroke="black" stroke-width="1" points="626,1593
626,1593 
"/>
<polyline fill="none" stroke="black" stroke-width="1" points="549,1584
483,1584 
483,1564 
549,1564 
549,1584 
"/>
<polyline fill="none" stroke="black" stroke-width="1" points="526,1664
506,1664 
506,1598 
526,1598 
526,1664 
"/>
<polyline fill="none" stroke="black" stroke-width="1" points="483,1664
460,1664 
460,1662 
451,1647 
423,1647 
423,1645 
433,1627 
441,1627 
441,1625 
435,1614 
419,1583 
419,1581 
430,1562 
434,1569 
483,1664 
"/>
<polyline fill="none" stroke="black" stroke-width="1" points="422,1647
422,1647 
"/>
<polyline fill="none" stroke="black" stroke-width="1" points="422,1619
422,1619 
"/>
<polyline fill="none" stroke="black" stroke-width="1" points="187,1753
187,1481 
473,1481 
473,1494 
449,1506 
442,1511 
428,1523 
424,1527 
412,1542 
401,1562 
396,1576 
392,1592 
390,1614 
390,1624 
392,1633 
397,1625 
411,1598 
418,1611 
422,1620 
400,1665 
411,1685 
428,1706 
451,1723 
469,1732 
487,1738 
507,1741 
511,1741 
525,1742 
554,1737 
567,1732 
585,1738 
605,1741 
608,1741 
623,1742 
652,1737 
666,1732 
680,1737 
688,1739 
690,1739 
704,1741 
707,1741 
721,1742 
750,1737 
764,1732 
774,1736 
786,1739 
788,1739 
800,1741 
805,1741 
818,1742 
848,1737 
859,1733 
882,1721 
904,1703 
921,1680 
928,1666 
929,1663 
926,1663 
920,1665 
906,1667 
903,1667 
884,1661 
873,1653 
871,1651 
869,1649 
862,1639 
858,1629 
856,1621 
877,1621 
877,1623 
882,1633 
888,1639 
897,1644 
905,1646 
915,1646 
929,1639 
937,1627 
939,1617 
939,1605 
931,1592 
923,1586 
914,1583 
911,1583 
905,1582 
892,1586 
882,1596 
878,1604 
878,1606 
876,1608 
856,1608 
856,1606 
860,1593 
867,1582 
876,1573 
886,1567 
898,1563 
900,1563 
917,1562 
929,1566 
929,1564 
926,1556 
1744,1556 
1744,1422 
1742,1422 
1500,1180 
1499,887 
1694,645 
2129,644 
2145,652 
2147,652 
2154,657 
2236,697 
2287,723 
"/>
<polyline fill="none" stroke="black" stroke-width="1" points="2103,1753
2103,1474 
2101,1470 
2097,1463 
2088,1458 
2071,1455 
2066,1448 
2066,1423 
1768,1423 
1768,1568 
1769,1753 
"/>
<polyline fill="none" stroke="black" stroke-width="1" points="1793,1753
1793,1481 
2079,1481 
2079,1753 
"/>
<polyline fill="none" stroke="black" stroke-width="1" points="1293,1753
1293,1750 
1298,1743 
1308,1717 
1308,1691 
1305,1685 
1302,1679 
1266,1643 
1212,1643 
1204,1647 
1197,1652 
1187,1662 
1181,1668 
1181,1670 
1179,1674 
1177,1680 
1172,1691 
1172,1722 
1181,1744 
1186,1751 
1186,1753 
"/>
<polyline fill="none" stroke="black" stroke-width="1" points="1246,1750
1234,1750 
1217,1744 
1214,1741 
1205,1732 
1200,1724 
1197,1713 
1196,1700 
1202,1683 
1205,1680 
1214,1671 
1222,1666 
1233,1663 
1246,1662 
1263,1668 
1266,1671 
1275,1680 
1280,1688 
1283,1699 
1284,1712 
1278,1729 
1275,1732 
1266,1741 
1258,1746 
1247,1749 
1246,1750 
"/>
<polyline fill="none" stroke="black" stroke-width="1" points="1245,1730
1245,1729 
1249,1729 
1258,1722 
1263,1714 
1263,1711 
1264,1701 
1260,1692 
1258,1690 
1256,1688 
1248,1683 
1245,1683 
1235,1682 
1226,1686 
1224,1688 
1222,1690 
1217,1698 
1217,1701 
1216,1711 
1220,1720 
1222,1722 
1224,1724 
1232,1729 
1235,1729 
1245,1730 
"/>
<polyline fill="none" stroke="black" stroke-width="1" points="1079,1753
1079,1750 
1084,1743 
1094,1717 
1094,1691 
1091,1685 
1082,1665 
1063,1648 
1051,1643 
998,1643 
990,1647 
983,1652 
967,1670 
967,1672 
963,1680 
958,1692 
958,1722 
961,1728 
972,1753 
"/>
<polyline fill="none" stroke="black" stroke-width="1" points="1032,1750
1020,1750 
1003,1744 
1000,1741 
991,1732 
986,1724 
983,1713 
982,1700 
988,1683 
991,1680 
1000,1671 
1008,1666 
1019,1663 
1032,1662 
1049,1668 
1052,1671 
1061,1680 
1066,1688 
1069,1699 
1070,1712 
1064,1729 
1061,1732 
1052,1741 
1044,1746 
1033,1749 
1032,1750 
"/>
<polyline fill="none" stroke="black" stroke-width="1" points="1031,1730
1031,1729 
1035,1729 
1044,1722 
1049,1714 
1049,1711 
1050,1701 
1046,1692 
1044,1690 
1042,1688 
1034,1683 
1031,1683 
1021,1682 
1012,1686 
1010,1688 
1008,1690 
1003,1698 
1003,1701 
1002,1711 
1006,1720 
1008,1722 
1010,1724 
1018,1729 
1021,1729 
1031,1730 
"/>
<polyline fill="none" stroke="black" stroke-width="1" points="819,1664
791,1664 
791,1644 
819,1644 
819,1664 
"/>
<polyline fill="none" stroke="black" stroke-width="1" points="780,1664
760,1664 
760,1564 
780,1564 
780,1664 
"/>
<polyline fill="none" stroke="black" stroke-width="1" points="53,479
53,478 
48,478 
37,472 
30,465 
25,457 
23,449 
22,438 
27,424 
30,421 
36,415 
44,410 
52,408 
63,407 
77,412 
80,415 
86,421 
91,429 
93,431 
139,431 
139,280 
166,253 
521,252 
549,277 
636,277 
676,235 
676,231 
682,218 
691,208 
700,202 
712,198 
714,198 
726,197 
743,203 
745,205 
754,213 
760,222 
764,230 
807,230 
807,228 
814,215 
816,213 
821,208 
830,202 
842,198 
844,198 
856,197 
873,203 
875,205 
884,213 
890,222 
894,234 
894,236 
895,248 
889,265 
887,267 
879,276 
870,282 
858,286 
856,286 
844,287 
827,281 
825,279 
816,271 
810,262 
806,254 
763,254 
763,256 
756,269 
754,271 
749,276 
740,282 
728,286 
726,286 
714,287 
697,281 
695,279 
686,271 
681,265 
644,300 
640,300 
543,301 
535,298 
526,289 
511,276 
175,276 
163,290 
163,442 
160,450 
153,454 
150,454 
91,457 
87,464 
80,471 
72,476 
64,478 
53,479 
"/>
<polyline fill="none" stroke="black" stroke-width="1" points="53,467
63,467 
72,463 
74,461 
76,459 
81,451 
81,448 
82,438 
78,429 
76,427 
74,425 
66,420 
63,420 
53,419 
44,423 
42,425 
40,427 
35,435 
35,438 
34,448 
38,457 
40,459 
42,461 
50,466 
53,466 
53,467 
"/>
<polyline fill="none" stroke="black" stroke-width="1" points="0,459
1,459 
1,462 
4,468 
9,478 
26,493 
48,502 
70,502 
76,499 
94,491 
105,480 
155,479 
161,485 
163,497 
163,593 
168,602 
174,606 
184,610 
477,610 
490,603 
495,595 
495,593 
497,589 
497,318 
503,312 
513,311 
524,320 
537,325 
649,325 
655,322 
663,318 
678,303 
688,302 
694,305 
744,306 
760,298 
770,288 
781,279 
789,279 
812,300 
827,306 
874,306 
890,298 
902,286 
908,280 
908,277 
912,269 
918,253 
918,227 
915,221 
906,201 
886,183 
880,181 
869,176 
863,174 
833,174 
816,181 
808,185 
790,203 
780,204 
772,197 
770,195 
756,183 
750,181 
739,176 
733,174 
703,174 
686,181 
678,185 
667,198 
661,204 
650,229 
624,253 
620,253 
562,254 
554,251 
536,233 
523,228 
162,228 
158,230 
149,235 
143,241 
136,248 
132,252 
119,267 
115,278 
115,386 
112,394 
105,398 
98,398 
90,392 
69,384 
43,384 
39,386 
22,394 
7,411 
0,426 
"/>
<polyline fill="none" stroke="black" stroke-width="1" points="53,349
63,349 
72,345 
74,343 
76,341 
81,333 
81,330 
82,320 
78,311 
76,309 
74,307 
66,302 
63,302 
53,301 
44,305 
42,307 
40,309 
35,317 
35,320 
34,330 
38,339 
40,341 
42,343 
50,348 
53,348 
53,349 
"/>
<polyline fill="none" stroke="black" stroke-width="1" points="53,243
53,242 
48,242 
37,236 
30,229 
25,221 
23,213 
22,202 
27,188 
30,185 
36,179 
44,174 
52,172 
63,171 
74,174 
154,94 
976,93 
1009,124 
1031,124 
1038,129 
1147,129 
1161,114 
1244,112 
1244,87 
1330,87 
1330,113 
1340,113 
1364,89 
2105,88 
2193,174 
2195,174 
2201,172 
2203,172 
2213,171 
2227,176 
2230,179 
2236,185 
2241,193 
2243,201 
2244,212 
2239,226 
2236,229 
2230,235 
2222,240 
2214,242 
2203,243 
2189,238 
2186,235 
2180,229 
2175,221 
2173,213 
2172,202 
2175,190 
2095,112 
1373,112 
1350,135 
1338,137 
1330,137 
1330,163 
1244,163 
1244,137 
1171,137 
1162,146 
1152,147 
1146,143 
1035,143 
1032,146 
1020,148 
1003,148 
995,145 
967,117 
163,117 
90,192 
92,196 
94,208 
94,212 
89,226 
86,229 
80,235 
72,240 
64,242 
53,243 
"/>
<polyline fill="none" stroke="black" stroke-width="1" points="53,231
63,231 
72,227 
74,225 
76,223 
81,215 
81,212 
82,202 
78,193 
76,191 
74,189 
66,184 
63,184 
53,183 
44,187 
42,189 
40,191 
35,199 
35,202 
34,212 
38,221 
40,223 
42,225 
50,230 
53,230 
53,231 
"/>
<polyline fill="none" stroke="black" stroke-width="1" points="0,223
1,223 
1,226 
5,234 
9,242 
26,257 
48,266 
70,266 
76,263 
94,255 
99,248 
101,248 
109,238 
118,216 
118,198 
134,181 
176,141 
956,141 
985,167 
998,172 
1012,172 
1018,178 
1020,190 
1020,248 
1025,257 
1031,261 
1041,266 
1044,272 
1044,275 
1045,307 
1044,381 
1049,391 
1094,436 
1096,436 
1100,438 
1108,441 
1227,441 
1233,438 
1241,434 
1273,400 
1278,386 
1278,328 
1284,322 
1339,319 
1348,313 
1353,300 
1353,253 
1359,247 
1369,246 
1485,362 
1487,374 
1487,434 
1484,442 
1459,467 
1454,472 
1414,512 
1409,517 
1369,557 
1364,562 
1339,587 
1333,604 
1333,606 
1327,612 
1317,613 
1306,604 
1286,596 
1260,596 
1254,599 
1248,601 
1242,601 
1236,595 
1233,548 
1231,544 
1227,537 
1170,482 
1158,478 
1090,478 
1082,475 
995,388 
993,388 
989,386 
983,384 
980,384 
972,381 
968,374 
968,358 
966,354 
962,347 
958,343 
952,340 
813,339 
806,343 
800,351 
798,359 
798,483 
803,492 
810,497 
820,500 
836,500 
842,506 
843,516 
821,538 
819,540 
814,554 
814,578 
811,586 
804,590 
797,590 
791,584 
778,554 
765,541 
760,536 
733,526 
702,526 
677,537 
666,550 
659,557 
659,559 
655,567 
649,582 
649,612 
651,616 
661,638 
674,651 
676,653 
683,658 
708,667 
713,667 
719,673 
721,685 
721,751 
726,760 
734,766 
744,769 
808,769 
814,775 
815,785 
812,1209 
671,1350 
666,1364 
666,1401 
668,1405 
673,1414 
695,1436 
705,1446 
721,1452 
982,1452 
989,1457 
1014,1467 
1040,1467 
1044,1465 
1067,1455 
1084,1436 
1094,1410 
1094,1382 
1164,1310 
1169,1297 
1169,953 
1193,927 
1193,878 
1186,873 
1186,871 
1164,849 
1163,839 
1187,814 
1197,813 
1230,844 
1278,844 
1296,824 
1317,805 
1325,805 
1331,811 
1333,823 
1333,994 
1330,1002 
1323,1006 
1320,1006 
1247,1007 
1225,1006 
1211,1009 
1202,1020 
1202,1022 
1201,1095 
1206,1104 
1210,1108 
1211,1118 
1203,1128 
1201,1134 
1201,1204 
1206,1213 
1213,1218 
1223,1221 
1334,1221 
1338,1219 
1345,1215 
1348,1212 
1373,1211 
1379,1217 
1381,1229 
1381,1296 
1378,1304 
1317,1363 
1313,1363 
1306,1364 
1298,1361 
1277,1340 
1275,1340 
1271,1338 
1253,1331 
1223,1331 
1219,1333 
1199,1342 
1181,1362 
1172,1385 
1172,1415 
1177,1427 
1183,1440 
1196,1451 
1202,1457 
1204,1457 
1208,1459 
1228,1467 
1254,1467 
1260,1464 
1280,1455 
1290,1445 
1302,1435 
1342,1435 
1348,1432 
1356,1428 
1447,1335 
1452,1320 
1452,1260 
1458,1254 
1468,1253 
1719,1479 
1721,1491 
1721,1522 
1718,1530 
1711,1534 
1409,1534 
908,1531 
893,1516 
885,1510 
876,1504 
857,1495 
840,1490 
819,1487 
797,1487 
770,1493 
761,1496 
757,1494 
755,1494 
746,1491 
738,1489 
735,1489 
721,1487 
699,1487 
672,1493 
663,1496 
659,1494 
657,1494 
648,1491 
640,1489 
637,1489 
623,1487 
601,1487 
574,1493 
565,1496 
561,1494 
559,1494 
550,1491 
542,1489 
539,1489 
525,1487 
503,1487 
497,1488 
497,1474 
495,1470 
491,1463 
479,1457 
178,1457 
174,1459 
166,1466 
163,1475 
163,1750 
162,1753 
"/>
<polyline fill="none" stroke="black" stroke-width="1" points="53,125
53,124 
48,124 
37,118 
30,111 
25,103 
23,95 
22,84 
27,70 
30,67 
36,61 
44,56 
52,54 
63,53 
77,58 
80,59 
93,41 
111,31 
1010,31 
1020,38 
1031,50 
1037,50 
1037,41 
1043,33 
1043,31 
1129,31 
1129,50 
1143,50 
1158,33 
1165,28 
1171,26 
2142,26 
2152,33 
2182,63 
2184,63 
2186,61 
2194,56 
2202,54 
2213,53 
2227,58 
2230,61 
2236,67 
2241,75 
2243,83 
2244,94 
2239,108 
2236,111 
2230,117 
2222,122 
2214,124 
2203,125 
2189,120 
2186,117 
2180,111 
2176,107 
2167,102 
2129,64 
1180,64 
1169,77 
1159,85 
1153,87 
1150,87 
1129,89 
1129,107 
1043,107 
1043,88 
1023,88 
1011,84 
996,69 
121,69 
116,73 
104,88 
92,100 
92,102 
83,115 
70,123 
68,123 
58,125 
53,125 
"/>
<polyline fill="none" stroke="black" stroke-width="1" points="53,113
63,113 
72,109 
74,107 
76,105 
81,97 
81,94 
82,84 
78,75 
76,73 
74,71 
66,66 
63,66 
53,65 
44,69 
42,71 
40,73 
35,81 
35,84 
34,94 
38,103 
40,105 
42,107 
50,112 
53,112 
53,113 
"/>
<polyline fill="none" stroke="black" stroke-width="1" points="0,105
1,105 
1,108 
4,114 
9,124 
27,142 
28,152 
12,168 
8,172 
8,174 
5,179 
0,190 
"/>
<polyline fill="none" stroke="black" stroke-width="1" points="78,1
78,2 
76,2 
73,5 
54,16 
52,18 
40,26 
27,35 
12,50 
7,55 
7,57 
5,61 
0,72 
"/>
<polyline fill="none" stroke="black" stroke-width="1" points="2287,639
2286,639 
2282,641 
2275,641 
2121,526 
2115,526 
2107,523 
2103,516 
2103,486 
2109,480 
2159,479 
2176,493 
2198,502 
2219,502 
2243,491 
2253,481 
2256,478 
2260,471 
2267,452 
2267,430 
2265,426 
2262,418 
2256,406 
2246,398 
2240,392 
2238,392 
2232,389 
2219,384 
2193,384 
2189,386 
2170,395 
2168,397 
2158,398 
2152,392 
2149,272 
2143,261 
2112,232 
2110,232 
2102,228 
1824,228 
1816,225 
1803,212 
1789,207 
1775,207 
1767,204 
1748,185 
1746,185 
1740,182 
1724,176 
1695,176 
1685,181 
1672,187 
1655,206 
1646,229 
1646,258 
1649,264 
1657,281 
1676,298 
1700,308 
1725,308 
1755,295 
1761,295 
1767,301 
1769,313 
1769,394 
1766,402 
1759,406 
1756,406 
1721,407 
1713,404 
1709,397 
1701,389 
1699,389 
1693,386 
1570,386 
1562,383 
1558,376 
1558,340 
1555,334 
1551,326 
1441,216 
1405,180 
1400,175 
1388,163 
1378,158 
1375,152 
1375,145 
1384,136 
2085,135 
2147,197 
2149,209 
2149,221 
2151,225 
2159,242 
2176,257 
2198,266 
2219,266 
2243,255 
2253,245 
2258,240 
2267,216 
2267,194 
2265,190 
2257,170 
2247,162 
2238,151 
2238,143 
2258,121 
2263,109 
2267,98 
2267,76 
2265,72 
2257,52 
2255,52 
2253,50 
2237,40 
2228,34 
2226,34 
2214,26 
2209,20 
2188,11 
2167,1 
"/>
</svg>
